<svg width="330" height="166" viewBox="0 0 330 166" fill="none" xmlns="http://www.w3.org/2000/svg">
<path d="M102.728 103.394V66.1955H107.513L130.255 96.1509V66.1955H134.804V103.394H130.019L107.249 73.1447V103.394H102.7H102.728ZM171.854 101.918C168.753 103.064 165.472 103.644 162.166 103.631C148.696 103.631 141.959 97.1904 141.959 84.2518C141.959 72.0227 148.457 65.8765 161.484 65.8765C165.207 65.8765 168.689 66.4073 171.879 67.4165V71.5525C168.689 70.315 165.38 69.721 162.012 69.721C151.851 69.721 146.769 74.5664 146.769 84.1363C146.769 94.4762 151.79 99.6187 161.775 99.6187C163.37 99.6187 165.144 99.3822 167.094 98.9697V86.5041H171.879V101.923L171.854 101.918ZM179.535 89.0368V66.1735H184.319V89.0368C184.319 96.1867 187.894 99.7617 195.044 99.7617C202.134 99.7617 205.769 96.1867 205.769 89.0368V66.1735H210.554V89.0368C210.554 98.7854 205.412 103.689 195.072 103.689C184.732 103.689 179.59 98.7854 179.59 89.0368H179.535ZM223.848 66.1955V99.5444H243.372V103.444H219.09V66.1955H223.875H223.848ZM250.258 103.416H245.237L263.722 61.3198L282.216 103.444H276.897L272.112 91.7455H259.82L261.121 87.846H270.515L263.543 71.008L250.247 103.444L250.258 103.416ZM287.361 103.416V66.1955H303.256C310.345 66.1955 313.89 69.149 313.89 75.1164C313.89 79.9619 310.403 83.5643 303.495 85.8413L316.255 103.386H309.93L298.113 86.6663V83.5946C305.203 82.4726 308.838 79.7556 308.838 75.3832C308.838 71.9567 306.913 70.2407 302.931 70.2407H292.297V103.394H287.394L287.361 103.416Z" fill="#4D4D4D"/>
<path d="M13.7499 56.2711L51.8562 42.6863L90.969 56.0374L84.6441 106.433L51.8562 124.569L19.599 106.695L13.7499 56.2711Z" fill="#6B6B6B"/>
<path d="M90.969 56.0342L51.8562 42.6831V124.569L84.6468 106.43L90.969 56.0342Z" fill="#4D4D4D"/>
<path d="M51.9194 52.2536L28.1652 105.045L37.0283 104.869L41.8133 92.9339H63.0238L68.2488 104.987L76.6967 105.163L51.9414 52.2261L51.9194 52.2536ZM51.9744 69.2099L60.0098 85.9902H44.94L51.9744 69.2154V69.2099Z" fill="white"/>
</svg>
