<?xml version="1.0" encoding="utf-8"?>
<!-- Generator: Adobe Illustrator 25.4.1, SVG Export Plug-In . SVG Version: 6.00 Build 0)  -->
<svg version="1.1" id="Layer_1" xmlns="http://www.w3.org/2000/svg" xmlns:xlink="http://www.w3.org/1999/xlink" x="0px" y="0px"
	 viewBox="0 0 330 166" style="enable-background:new 0 0 330 166;" xml:space="preserve">
<style type="text/css">
	.st0{fill-rule:evenodd;clip-rule:evenodd;fill:#FFFFFF;}
	.st1{fill:#4D4D4D;}
	.st2{fill-rule:evenodd;clip-rule:evenodd;fill:#4D4D4D;}
</style>
<path class="st0" d="M59.9,94.5c2.8,0,5,2.2,5.1,4.9c0,2.8-2.2,5-4.9,5.1c0,0-0.1,0-0.1,0c-2.8,0-5-2.3-4.9-5.1
	C55,96.7,57.2,94.5,59.9,94.5"/>
<g>
	<path class="st1" d="M133.1,71c0,1.8,0.2,3.3,0.5,4.3c0.4,1.1,0.9,2.2,1.6,3.5c0.2,0.4,0.3,0.8,0.3,1.1c0,0.5-0.3,1-0.9,1.5l-3.1,2
		c-0.4,0.3-0.9,0.4-1.3,0.4c-0.5,0-1-0.2-1.5-0.7c-0.7-0.7-1.3-1.5-1.7-2.3c-0.5-0.8-1-1.7-1.5-2.9c-3.8,4.5-8.5,6.7-14.3,6.7
		c-4.1,0-7.3-1.2-9.7-3.5C99.2,79,98,75.9,98,72c0-4.1,1.5-7.5,4.4-10s6.9-3.8,11.9-3.8c1.7,0,3.4,0.1,5.1,0.4s3.6,0.6,5.6,1.1v-3.5
		c0-3.7-0.8-6.3-2.3-7.8c-1.6-1.5-4.2-2.2-7.9-2.2c-1.7,0-3.4,0.2-5.2,0.6c-1.8,0.4-3.5,1-5.2,1.7c-0.8,0.3-1.4,0.5-1.7,0.6
		c-0.3,0.1-0.6,0.1-0.8,0.1c-0.7,0-1-0.5-1-1.5v-2.4c0-0.8,0.1-1.4,0.3-1.7s0.7-0.7,1.4-1c1.7-0.9,3.7-1.6,6.1-2.2
		c2.4-0.6,4.9-0.9,7.6-0.9c5.8,0,10,1.3,12.7,3.9c2.7,2.6,4,6.6,4,12L133.1,71L133.1,71z M113.4,78.4c1.6,0,3.3-0.3,5-0.9
		c1.7-0.6,3.3-1.7,4.6-3.1c0.8-0.9,1.4-1.9,1.7-3.1c0.3-1.2,0.5-2.6,0.5-4.2v-2c-1.4-0.3-2.9-0.6-4.5-0.8s-3.1-0.3-4.6-0.3
		c-3.3,0-5.6,0.6-7.2,1.9s-2.4,3.2-2.4,5.6c0,2.3,0.6,4,1.8,5.1C109.5,77.9,111.2,78.4,113.4,78.4L113.4,78.4z M152.4,83.7
		c-0.9,0-1.5-0.1-1.8-0.5c-0.4-0.3-0.7-1-1-1.9l-11.4-37.6c-0.3-1-0.4-1.6-0.4-1.9c0-0.8,0.4-1.2,1.2-1.2h4.8c0.9,0,1.6,0.1,1.9,0.5
		c0.4,0.3,0.7,1,1,1.9l8.2,32.2l7.6-32.2c0.2-1,0.5-1.6,0.9-1.9c0.4-0.3,1.1-0.5,1.9-0.5h3.9c0.9,0,1.6,0.1,1.9,0.5
		c0.4,0.3,0.7,1,0.9,1.9l7.7,32.5l8.4-32.5c0.3-1,0.6-1.6,1-1.9c0.4-0.3,1-0.5,1.9-0.5h4.5c0.8,0,1.2,0.4,1.2,1.2
		c0,0.2,0,0.5-0.1,0.8c0,0.3-0.1,0.7-0.3,1.2l-11.7,37.6c-0.3,1-0.6,1.6-1,1.9c-0.4,0.3-1,0.5-1.8,0.5h-4.2c-0.9,0-1.6-0.1-1.9-0.5
		c-0.4-0.3-0.7-1-0.9-1.9L166.9,50l-7.5,31.3c-0.2,1-0.5,1.6-0.9,1.9c-0.4,0.3-1.1,0.5-1.9,0.5H152.4z M214.8,85
		c-2.5,0-5.1-0.3-7.5-0.9c-2.4-0.6-4.3-1.2-5.6-1.9c-0.8-0.4-1.3-0.9-1.5-1.4s-0.3-0.9-0.3-1.4V77c0-1,0.4-1.5,1.1-1.5
		c0.3,0,0.6,0,0.9,0.1c0.3,0.1,0.7,0.3,1.2,0.5c1.7,0.7,3.4,1.3,5.3,1.7c1.9,0.4,3.8,0.6,5.8,0.6c3.1,0,5.4-0.5,7.1-1.6
		s2.5-2.6,2.5-4.6c0-1.4-0.4-2.5-1.3-3.4c-0.9-0.9-2.5-1.7-4.9-2.5l-7-2.2c-3.5-1.1-6.2-2.8-7.8-5c-1.6-2.1-2.4-4.5-2.4-7
		c0-2,0.4-3.8,1.3-5.4c0.9-1.6,2-2.9,3.5-4c1.5-1.1,3.1-1.9,5.1-2.5c1.9-0.6,4-0.8,6.1-0.8c1.1,0,2.2,0,3.3,0.2
		c1.1,0.1,2.1,0.3,3.2,0.5c1,0.2,1.9,0.5,2.8,0.8c0.9,0.3,1.6,0.6,2,0.9c0.7,0.4,1.2,0.8,1.5,1.2c0.3,0.4,0.4,0.9,0.4,1.6v2.3
		c0,1-0.4,1.6-1.1,1.6c-0.4,0-1-0.2-1.8-0.6c-2.8-1.3-5.9-1.9-9.3-1.9c-2.8,0-5,0.4-6.5,1.4s-2.3,2.3-2.3,4.3c0,1.4,0.5,2.5,1.5,3.4
		s2.8,1.8,5.3,2.7l6.9,2.2c3.5,1.1,6,2.7,7.5,4.7c1.5,2,2.2,4.3,2.2,6.8c0,2.1-0.4,4-1.3,5.6c-0.9,1.7-2,3.1-3.5,4.3
		c-1.5,1.2-3.3,2.1-5.4,2.7C219.6,84.7,217.3,85,214.8,85L214.8,85z"/>
	<g>
		<path class="st2" d="M224,108.6c-16,11.8-39.2,18.1-59.2,18.1c-28,0-53.2-10.3-72.2-27.5c-1.5-1.4-0.1-3.2,1.7-2.1
			c20.6,12,46,19.2,72.3,19.2c17.7,0,37.2-3.7,55.1-11.3C224.4,103.7,226.6,106.7,224,108.6z"/>
		<path class="st2" d="M230.7,101c-2-2.6-13.5-1.3-18.7-0.6c-1.6,0.2-1.8-1.2-0.4-2.2c9.1-6.4,24.1-4.6,25.9-2.4
			c1.7,2.2-0.5,17.2-9,24.4c-1.3,1.1-2.6,0.5-2-0.9C228.4,114.4,232.7,103.6,230.7,101z"/>
	</g>
</g>
</svg>
