<svg width="161" height="37" viewBox="0 0 161 37" fill="none" xmlns="http://www.w3.org/2000/svg">
<path d="M55.0616 16.1183C55.9759 16.6516 56.687 17.4135 57.195 18.4294C57.7029 19.4453 57.9823 20.6136 57.9823 21.9597C57.9823 23.2803 57.7029 24.4486 57.195 25.4645C56.687 26.4804 55.9759 27.2677 55.0616 27.8265C54.1473 28.3852 53.106 28.6646 51.9631 28.6646C51.0488 28.6646 50.2361 28.5122 49.5757 28.1566C48.89 27.8011 48.3313 27.3439 47.8995 26.7344L47.544 28.5122H44.4201V10.734H48.0011V17.1088C48.9916 15.9151 50.3123 15.3055 51.9377 15.3055C53.106 15.3055 54.1473 15.5849 55.0616 16.1183ZM53.4616 24.7026C54.0457 24.0169 54.3505 23.1026 54.3505 21.9851C54.3505 20.8676 54.0457 19.9787 53.4616 19.2675C52.852 18.5818 52.0901 18.2262 51.125 18.2262C50.1599 18.2262 49.3726 18.5818 48.8138 19.2675C48.2297 19.9533 47.9503 20.8422 47.9503 21.9597C47.9503 23.1026 48.2297 24.0169 48.8138 24.7026C49.3726 25.4137 50.1599 25.7439 51.125 25.7439C52.0901 25.7439 52.852 25.4137 53.4616 24.7026ZM62.2052 15.4579L65.3799 24.8296L68.4784 15.4579H72.3134L66.5228 30.3662C66.218 31.1789 65.9132 31.7885 65.6593 32.2456C65.3799 32.7028 65.0243 33.0329 64.618 33.2615C64.2116 33.4901 63.6783 33.5917 63.0179 33.5917H59.5385V30.5694H61.5195C61.9766 30.5694 62.3068 30.4932 62.51 30.3408C62.7132 30.1884 62.8909 29.9091 63.0941 29.4519L63.4243 28.5884L58.3956 15.4579H62.2052ZM73.7204 11.8007H77.3014V15.4579H80.2729V18.4802H77.3014V24.1946C77.3014 24.6518 77.3776 24.982 77.5808 25.1851C77.784 25.3883 78.1141 25.4899 78.5713 25.4899H80.4253V28.5122H77.4538C74.9648 28.5122 73.7204 27.2677 73.7204 24.7788V11.8007ZM82.2267 18.4802C82.7855 17.4643 83.5474 16.7024 84.5379 16.1437C85.5284 15.5849 86.6713 15.3055 87.9919 15.3055C89.3126 15.3055 90.4555 15.5849 91.4714 16.0929C92.4873 16.6008 93.2746 17.3373 93.8333 18.277C94.3921 19.2167 94.6969 20.3088 94.7223 21.5787C94.7223 22.0359 94.6715 22.4422 94.6207 22.7978H85.1474V22.8994C85.2236 23.8645 85.5284 24.601 86.0617 25.1343C86.5697 25.6931 87.3062 25.9471 88.2205 25.9471C88.9316 25.9471 89.5412 25.7947 90.0237 25.4899C90.5063 25.1851 90.8364 24.7026 90.9888 24.0931H94.5191C94.3667 24.9566 94.0365 25.7439 93.5286 26.4296C92.9952 27.1407 92.3095 27.6741 91.446 28.0805C90.5825 28.4868 89.592 28.6646 88.4745 28.6646C87.0014 28.6646 85.757 28.4106 84.6903 27.8519C83.6236 27.3185 82.8109 26.5566 82.2521 25.5407C81.6934 24.5248 81.414 23.3565 81.414 22.0105C81.414 20.6644 81.668 19.4961 82.2267 18.4802ZM91.1412 20.4612C91.0142 19.6739 90.6841 19.0644 90.1507 18.6326C89.6174 18.2009 88.957 17.9723 88.1443 17.9723C87.357 17.9723 86.6967 18.2009 86.1633 18.658C85.63 19.1152 85.3252 19.6993 85.2236 20.4612H91.1412ZM97.4793 14.8738C98.1904 13.5023 99.1809 12.461 100.502 11.6991C101.822 10.9626 103.371 10.5816 105.149 10.5816C106.521 10.5816 107.765 10.861 108.883 11.3943C109.975 11.9531 110.864 12.715 111.549 13.6801C112.21 14.6706 112.616 15.8135 112.769 17.0834H108.959C108.73 16.0675 108.273 15.2801 107.562 14.696C106.851 14.1119 105.987 13.8071 104.946 13.8071C103.524 13.8071 102.381 14.3404 101.568 15.4071C100.73 16.4738 100.324 17.8961 100.324 19.6231C100.324 21.3501 100.73 22.7724 101.568 23.8391C102.381 24.9058 103.524 25.4391 104.946 25.4391C105.987 25.4391 106.851 25.1597 107.562 24.5756C108.273 23.9915 108.73 23.1787 108.959 22.1629H112.769C112.616 23.4581 112.21 24.601 111.549 25.5661C110.864 26.5566 109.975 27.3185 108.883 27.8519C107.765 28.4106 106.521 28.6646 105.149 28.6646C103.371 28.6646 101.822 28.309 100.502 27.5471C99.1809 26.8106 98.1904 25.7693 97.4793 24.3978C96.7681 23.0264 96.438 21.4517 96.438 19.6231C96.438 17.8199 96.7681 16.2452 97.4793 14.8738ZM117.636 27.8519C116.595 27.2931 115.782 26.5058 115.223 25.4899C114.664 24.474 114.385 23.3057 114.385 21.9851C114.385 20.6644 114.664 19.4961 115.223 18.4802C115.782 17.4643 116.595 16.7024 117.636 16.1437C118.677 15.5849 119.896 15.3055 121.268 15.3055C122.639 15.3055 123.833 15.5849 124.874 16.1437C125.915 16.7024 126.728 17.4643 127.287 18.4802C127.846 19.4961 128.15 20.6644 128.15 21.9851C128.15 23.3311 127.846 24.4994 127.287 25.5153C126.728 26.5312 125.915 27.2931 124.874 27.8519C123.833 28.4106 122.639 28.6646 121.268 28.6646C119.896 28.6646 118.677 28.4106 117.636 27.8519ZM123.63 24.7026C124.214 24.0169 124.519 23.1026 124.519 21.9851C124.519 20.8676 124.214 19.9787 123.63 19.2675C123.046 18.5818 122.258 18.2262 121.268 18.2262C120.277 18.2262 119.49 18.5818 118.906 19.2675C118.322 19.9787 118.042 20.8676 118.042 21.9851C118.042 23.1026 118.322 24.0169 118.906 24.7026C119.49 25.4137 120.277 25.7439 121.268 25.7439C122.258 25.7439 123.046 25.4137 123.63 24.7026ZM143.366 10.734V28.5122H140.242L139.887 26.709C138.871 28.0297 137.525 28.6646 135.823 28.6646C134.655 28.6646 133.639 28.4106 132.725 27.8519C131.81 27.2931 131.074 26.5058 130.566 25.4899C130.058 24.474 129.804 23.3057 129.804 21.9597C129.804 20.639 130.058 19.4961 130.566 18.4802C131.074 17.4643 131.81 16.7024 132.725 16.1437C133.639 15.5849 134.68 15.3055 135.849 15.3055C137.525 15.3055 138.846 15.9151 139.785 17.0834V10.734H143.366ZM138.973 24.728C139.531 24.0423 139.836 23.128 139.836 22.0105C139.836 20.893 139.531 19.9787 138.973 19.2675C138.388 18.5818 137.626 18.2262 136.661 18.2262C135.696 18.2262 134.909 18.5818 134.325 19.2675C133.741 19.9787 133.461 20.8676 133.461 21.9851C133.461 23.1026 133.741 24.0169 134.325 24.7026C134.909 25.4137 135.696 25.7439 136.661 25.7439C137.626 25.7439 138.388 25.4137 138.973 24.728ZM146.358 18.4802C146.917 17.4643 147.679 16.7024 148.669 16.1437C149.66 15.5849 150.803 15.3055 152.123 15.3055C153.444 15.3055 154.587 15.5849 155.603 16.0929C156.619 16.6008 157.406 17.3373 157.965 18.277C158.524 19.2167 158.828 20.3088 158.854 21.5787C158.854 22.0359 158.803 22.4422 158.752 22.7978H149.279V22.8994C149.355 23.8645 149.66 24.601 150.193 25.1343C150.701 25.6931 151.438 25.9471 152.352 25.9471C153.063 25.9471 153.673 25.7947 154.155 25.4899C154.638 25.1851 154.968 24.7026 155.12 24.0931H158.651C158.498 24.9566 158.168 25.7439 157.66 26.4296C157.127 27.1407 156.441 27.6741 155.577 28.0805C154.714 28.4868 153.723 28.6646 152.606 28.6646C151.133 28.6646 149.888 28.4106 148.822 27.8519C147.755 27.3185 146.942 26.5566 146.384 25.5407C145.825 24.5248 145.545 23.3565 145.545 22.0105C145.545 20.6644 145.799 19.4961 146.358 18.4802ZM155.273 20.4612C155.146 19.6739 154.816 19.0644 154.282 18.6326C153.749 18.2009 153.089 17.9723 152.276 17.9723C151.488 17.9723 150.828 18.2009 150.295 18.658C149.761 19.1152 149.457 19.6993 149.355 20.4612H155.273Z" fill="black"/>
<g clip-path="url(#clip0_30_345)">
<g clip-path="url(#clip1_30_345)">
<rect y="5.5918" width="30.4769" height="30.4769" rx="15.2385" fill="black"/>
<path d="M20.3941 19.5439V22.1344L10.5907 26.3758V23.709L17.3464 20.8391L10.5907 17.9692V15.3025L20.3941 19.5439Z" fill="white"/>
</g>
</g>
<defs>
<clipPath id="clip0_30_345">
<rect width="30.4769" height="30.4769" fill="white" transform="translate(0 5.5918)"/>
</clipPath>
<clipPath id="clip1_30_345">
<rect y="5.5918" width="30.4769" height="30.4769" rx="15.2385" fill="white"/>
</clipPath>
</defs>
</svg>
