<svg width="206" height="36" viewBox="0 0 206 36" fill="none" xmlns="http://www.w3.org/2000/svg">
<g clip-path="url(#clip0_242_226)">
<g clip-path="url(#clip1_242_226)">
<rect width="32" height="32" rx="16" fill="#DDF247"/>
<path d="M21.4133 15.4V18.12L11.12 22.5734V19.7734L18.2133 16.76L11.12 13.7467V10.9467L21.4133 15.4Z" fill="#010101"/>
</g>
</g>
<path d="M189.097 15.5701C189.845 14.2101 190.865 13.1901 192.191 12.4421C193.517 11.6941 195.047 11.3201 196.815 11.3201C198.583 11.3201 200.113 11.6941 201.473 12.3741C202.833 13.0541 203.887 14.0401 204.635 15.2981C205.383 16.5561 205.791 18.0181 205.825 19.7181C205.825 20.3301 205.757 20.8741 205.689 21.3501H193.007V21.4861C193.109 22.7781 193.517 23.7641 194.231 24.4781C194.911 25.2261 195.897 25.5661 197.121 25.5661C198.073 25.5661 198.889 25.3621 199.535 24.9541C200.181 24.5461 200.623 23.9001 200.827 23.0841H205.553C205.349 24.2401 204.907 25.2941 204.227 26.2121C203.513 27.1641 202.595 27.8781 201.439 28.4221C200.283 28.9661 198.957 29.2041 197.461 29.2041C195.489 29.2041 193.823 28.8641 192.395 28.1161C190.967 27.4021 189.879 26.3821 189.131 25.0221C188.383 23.6621 188.009 22.0981 188.009 20.2961C188.009 18.4941 188.349 16.9301 189.097 15.5701ZM201.031 18.2221C200.861 17.1681 200.419 16.3521 199.705 15.7741C198.991 15.1961 198.107 14.8901 197.019 14.8901C195.965 14.8901 195.081 15.1961 194.367 15.8081C193.653 16.4201 193.245 17.2021 193.109 18.2221H201.031Z" fill="white"/>
<path d="M185.097 5.2002V29.0002H180.915L180.439 26.5862C179.079 28.3542 177.277 29.2042 174.999 29.2042C173.435 29.2042 172.075 28.8642 170.851 28.1162C169.627 27.3682 168.641 26.3142 167.961 24.9542C167.281 23.5942 166.941 22.0302 166.941 20.2282C166.941 18.4602 167.281 16.9302 167.961 15.5702C168.641 14.2102 169.627 13.1902 170.851 12.4422C172.075 11.6942 173.469 11.3202 175.033 11.3202C177.277 11.3202 179.045 12.1362 180.303 13.7002V5.2002H185.097ZM179.215 23.9342C179.963 23.0162 180.371 21.7922 180.371 20.2962C180.371 18.8002 179.963 17.5762 179.215 16.6242C178.433 15.7062 177.413 15.2302 176.121 15.2302C174.829 15.2302 173.775 15.7062 172.993 16.6242C172.211 17.5762 171.837 18.7662 171.837 20.2622C171.837 21.7582 172.211 22.9822 172.993 23.9002C173.775 24.8522 174.829 25.2942 176.121 25.2942C177.413 25.2942 178.433 24.8522 179.215 23.9342Z" fill="white"/>
<path d="M150.656 28.1161C149.262 27.3681 148.174 26.3141 147.426 24.9541C146.678 23.5941 146.304 22.0301 146.304 20.2621C146.304 18.4941 146.678 16.9301 147.426 15.5701C148.174 14.2101 149.262 13.1901 150.656 12.4421C152.05 11.6941 153.682 11.3201 155.518 11.3201C157.354 11.3201 158.952 11.6941 160.346 12.4421C161.74 13.1901 162.828 14.2101 163.576 15.5701C164.324 16.9301 164.732 18.4941 164.732 20.2621C164.732 22.0641 164.324 23.6281 163.576 24.9881C162.828 26.3481 161.74 27.3681 160.346 28.1161C158.952 28.8641 157.354 29.2041 155.518 29.2041C153.682 29.2041 152.05 28.8641 150.656 28.1161ZM158.68 23.9001C159.462 22.9821 159.87 21.7581 159.87 20.2621C159.87 18.7661 159.462 17.5761 158.68 16.6241C157.898 15.7061 156.844 15.2301 155.518 15.2301C154.192 15.2301 153.138 15.7061 152.356 16.6241C151.574 17.5761 151.2 18.7661 151.2 20.2621C151.2 21.7581 151.574 22.9821 152.356 23.9001C153.138 24.8521 154.192 25.2941 155.518 25.2941C156.844 25.2941 157.898 24.8521 158.68 23.9001Z" fill="white"/>
<path d="M123.677 10.7421C124.629 8.90609 125.955 7.51209 127.723 6.49209C129.491 5.50609 131.565 4.99609 133.945 4.99609C135.781 4.99609 137.447 5.37009 138.943 6.08409C140.405 6.83209 141.595 7.85209 142.513 9.14409C143.397 10.4701 143.941 12.0001 144.145 13.7001H139.045C138.739 12.3401 138.127 11.2861 137.175 10.5041C136.223 9.72209 135.067 9.31409 133.673 9.31409C131.769 9.31409 130.239 10.0281 129.151 11.4561C128.029 12.8841 127.485 14.7881 127.485 17.1001C127.485 19.4121 128.029 21.3161 129.151 22.7441C130.239 24.1721 131.769 24.8861 133.673 24.8861C135.067 24.8861 136.223 24.5121 137.175 23.7301C138.127 22.9481 138.739 21.8601 139.045 20.5001H144.145C143.941 22.2341 143.397 23.7641 142.513 25.0561C141.595 26.3821 140.405 27.4021 138.943 28.1161C137.447 28.8641 135.781 29.2041 133.945 29.2041C131.565 29.2041 129.491 28.7281 127.723 27.7081C125.955 26.7221 124.629 25.3281 123.677 23.4921C122.725 21.6561 122.283 19.5481 122.283 17.1001C122.283 14.6861 122.725 12.5781 123.677 10.7421Z" fill="white"/>
<path d="M103.263 15.5701C104.011 14.2101 105.031 13.1901 106.357 12.4421C107.683 11.6941 109.213 11.3201 110.981 11.3201C112.749 11.3201 114.279 11.6941 115.639 12.3741C116.999 13.0541 118.053 14.0401 118.801 15.2981C119.549 16.5561 119.957 18.0181 119.991 19.7181C119.991 20.3301 119.923 20.8741 119.855 21.3501H107.173V21.4861C107.275 22.7781 107.683 23.7641 108.397 24.4781C109.077 25.2261 110.063 25.5661 111.287 25.5661C112.239 25.5661 113.055 25.3621 113.701 24.9541C114.347 24.5461 114.789 23.9001 114.993 23.0841H119.719C119.515 24.2401 119.073 25.2941 118.393 26.2121C117.679 27.1641 116.761 27.8781 115.605 28.4221C114.449 28.9661 113.123 29.2041 111.627 29.2041C109.655 29.2041 107.989 28.8641 106.561 28.1161C105.133 27.4021 104.045 26.3821 103.297 25.0221C102.549 23.6621 102.175 22.0981 102.175 20.2961C102.175 18.4941 102.515 16.9301 103.263 15.5701ZM115.197 18.2221C115.027 17.1681 114.585 16.3521 113.871 15.7741C113.157 15.1961 112.273 14.8901 111.185 14.8901C110.131 14.8901 109.247 15.1961 108.533 15.8081C107.819 16.4201 107.411 17.2021 107.275 18.2221H115.197Z" fill="white"/>
<path d="M91.8809 6.62817H96.6749V11.5242H100.653V15.5702H96.6749V23.2202C96.6749 23.8322 96.7769 24.2742 97.0489 24.5462C97.3209 24.8182 97.7629 24.9542 98.3749 24.9542H100.857V29.0002H96.8789C93.5469 29.0002 91.8809 27.3342 91.8809 24.0022V6.62817Z" fill="white"/>
<path d="M76.4703 11.5242L80.7203 24.0702L84.8683 11.5242H90.0023L82.2503 31.4822C81.8423 32.5702 81.4343 33.3862 81.0943 33.9982C80.7203 34.6102 80.2443 35.0522 79.7003 35.3582C79.1563 35.6642 78.4423 35.8002 77.5583 35.8002H72.9003V31.7542H75.5523C76.1643 31.7542 76.6063 31.6522 76.8783 31.4482C77.1503 31.2442 77.3883 30.8702 77.6603 30.2582L78.1023 29.1022L71.3703 11.5242H76.4703Z" fill="white"/>
<path d="M66.912 12.4082C68.136 13.1222 69.088 14.1422 69.768 15.5022C70.448 16.8622 70.822 18.4262 70.822 20.2282C70.822 21.9962 70.448 23.5602 69.768 24.9202C69.088 26.2802 68.136 27.3342 66.912 28.0822C65.688 28.8302 64.294 29.2042 62.764 29.2042C61.54 29.2042 60.452 29.0002 59.568 28.5242C58.65 28.0482 57.902 27.4362 57.324 26.6202L56.848 29.0002H52.666V5.2002H57.46V13.7342C58.786 12.1362 60.554 11.3202 62.73 11.3202C64.294 11.3202 65.688 11.6942 66.912 12.4082ZM64.77 23.9002C65.552 22.9822 65.96 21.7582 65.96 20.2622C65.96 18.7662 65.552 17.5762 64.77 16.6242C63.954 15.7062 62.934 15.2302 61.642 15.2302C60.35 15.2302 59.296 15.7062 58.548 16.6242C57.766 17.5422 57.392 18.7322 57.392 20.2282C57.392 21.7582 57.766 22.9822 58.548 23.9002C59.296 24.8522 60.35 25.2942 61.642 25.2942C62.934 25.2942 63.954 24.8522 64.77 23.9002Z" fill="white"/>
<defs>
<clipPath id="clip0_242_226">
<rect width="32" height="32" fill="white"/>
</clipPath>
<clipPath id="clip1_242_226">
<rect width="32" height="32" rx="16" fill="white"/>
</clipPath>
</defs>
</svg>
