<svg width="42" height="42" viewBox="0 0 42 42" fill="none" xmlns="http://www.w3.org/2000/svg">
<path d="M4.20001 21C4.20001 16.5443 5.97001 12.2712 9.12062 9.12056C12.2712 5.96995 16.5444 4.19995 21 4.19995C25.4556 4.19995 29.7288 5.96995 32.8794 9.12056C36.03 12.2712 37.8 16.5443 37.8 21C37.8 25.4556 36.03 29.7287 32.8794 32.8793C29.7288 36.03 25.4556 37.7999 21 37.7999C16.5444 37.7999 12.2712 36.03 9.12062 32.8793C5.97001 29.7287 4.20001 25.4556 4.20001 21ZM25.1118 13.0199C25.172 12.8929 25.2061 12.755 25.212 12.6145C25.2179 12.4741 25.1955 12.3338 25.1462 12.2022C25.0969 12.0705 25.0217 11.9501 24.9249 11.848C24.8282 11.746 24.712 11.6644 24.5831 11.6081C24.4543 11.5519 24.3154 11.522 24.1748 11.5205C24.0342 11.5189 23.8948 11.5455 23.7647 11.5988C23.6346 11.6522 23.5165 11.7311 23.4175 11.8309C23.3185 11.9307 23.2405 12.0494 23.1882 12.18L15.8382 28.9799C15.778 29.107 15.7439 29.2449 15.738 29.3854C15.7321 29.5258 15.7545 29.6661 15.8038 29.7977C15.8531 29.9294 15.9283 30.0498 16.0251 30.1519C16.1218 30.2539 16.238 30.3355 16.3669 30.3918C16.4958 30.448 16.6346 30.4779 16.7752 30.4794C16.9158 30.481 17.0553 30.4544 17.1854 30.4011C17.3155 30.3477 17.4335 30.2688 17.5325 30.169C17.6316 30.0692 17.7095 29.9505 17.7618 29.82L25.1118 13.0199ZM14.3934 16.0566C14.2959 15.9588 14.18 15.8812 14.0524 15.8283C13.9249 15.7753 13.7881 15.7481 13.65 15.7481C13.5119 15.7481 13.3751 15.7753 13.2476 15.8283C13.12 15.8812 13.0041 15.9588 12.9066 16.0566L8.70661 20.2565C8.60883 20.3541 8.53125 20.47 8.47832 20.5975C8.42538 20.7251 8.39814 20.8618 8.39814 21C8.39814 21.1381 8.42538 21.2748 8.47832 21.4024C8.53125 21.5299 8.60883 21.6458 8.70661 21.7434L12.9066 25.9433C13.1038 26.1405 13.3712 26.2513 13.65 26.2513C13.9288 26.2513 14.1962 26.1405 14.3934 25.9433C14.5906 25.7462 14.7013 25.4788 14.7013 25.2C14.7013 24.9211 14.5906 24.6537 14.3934 24.4566L10.9347 21L14.3934 17.5434C14.4912 17.4458 14.5688 17.3299 14.6217 17.2024C14.6746 17.0748 14.7019 16.9381 14.7019 16.8C14.7019 16.6618 14.6746 16.5251 14.6217 16.3975C14.5688 16.27 14.4912 16.1541 14.3934 16.0566ZM27.6066 17.5434L31.0653 21L27.6066 24.4566C27.4094 24.6537 27.2987 24.9211 27.2987 25.2C27.2987 25.4788 27.4094 25.7462 27.6066 25.9433C27.8038 26.1405 28.0712 26.2513 28.35 26.2513C28.6288 26.2513 28.8962 26.1405 29.0934 25.9433L33.2934 21.7434C33.3912 21.6458 33.4688 21.5299 33.5217 21.4024C33.5746 21.2748 33.6019 21.1381 33.6019 21C33.6019 20.8618 33.5746 20.7251 33.5217 20.5975C33.4688 20.47 33.3912 20.3541 33.2934 20.2565L29.0934 16.0566C28.8962 15.8594 28.6288 15.7486 28.35 15.7486C28.0712 15.7486 27.8038 15.8594 27.6066 16.0566C27.4094 16.2537 27.2987 16.5211 27.2987 16.8C27.2987 17.0788 27.4094 17.3462 27.6066 17.5434Z" fill="black"/>
</svg>
