<?xml version="1.0" encoding="utf-8"?>
<!-- Generator: Adobe Illustrator 25.4.1, SVG Export Plug-In . SVG Version: 6.00 Build 0)  -->
<svg version="1.1" id="Layer_1" xmlns="http://www.w3.org/2000/svg" xmlns:xlink="http://www.w3.org/1999/xlink" x="0px" y="0px"
	 viewBox="0 0 330 166" style="enable-background:new 0 0 330 166;" xml:space="preserve">
<style type="text/css">
	.st0{fill:#FFFFFF;}
	.st1{fill:#4D4D4D;}
	.st2{fill:#4D4D4D;stroke:#4D4D4D;stroke-width:2.129;}
	.st3{fill:#4D4D4D;stroke:#4D4D4D;stroke-width:2.129;stroke-linecap:square;}
</style>
<path class="st0" d="M51.9,52.3L28.2,105l8.9-0.2l4.8-11.9H63l5.2,12.1l8.4,0.2L51.9,52.3L51.9,52.3z M52,69.2L60,86H44.9L52,69.2
	L52,69.2z"/>
<g>
	<path class="st1" d="M26,94.1c0-2.4-0.8-4.1-2.5-5.1c-1.6-1-4-1.5-7.1-1.5v-8.9c1.5,0,2.9-0.1,4.1-0.3s2.2-0.6,3.1-1.2
		c0.8-0.5,1.4-1.2,1.8-2.1c0.4-0.8,0.6-1.9,0.6-3.1V60.1c0-1.8,0.2-3.4,0.7-4.7s1.3-2.4,2.5-3.2s2.9-1.5,5-1.9s4.8-0.6,8-0.6v8.4
		c-0.9,0-1.8,0.1-2.7,0.3c-0.8,0.2-1.5,0.4-2,0.8c-0.5,0.4-1,0.9-1.3,1.6c-0.3,0.7-0.4,1.5-0.4,2.6v11.1c-0.1,4.7-3.1,7.4-8.7,8.3
		v0.4c2.9,0.4,5.1,1.3,6.6,2.7c1.5,1.4,2.2,3.2,2.2,5.5v11.1c0,1.1,0.1,1.9,0.4,2.6c0.3,0.7,0.7,1.2,1.3,1.6c0.6,0.4,1.3,0.7,2,0.8
		c0.8,0.2,1.7,0.2,2.7,0.3v8.4c-3.3,0-5.9-0.2-8-0.6c-2.1-0.4-3.8-1-5-1.9c-1.2-0.8-2.1-1.9-2.5-3.2c-0.5-1.3-0.7-2.9-0.7-4.7
		L26,94.1 M304,105.9c0,1.8-0.2,3.4-0.7,4.7s-1.3,2.4-2.6,3.2c-1.2,0.8-2.9,1.5-5,1.9c-2.1,0.4-4.8,0.6-8,0.6v-8.4
		c1,0,1.9-0.1,2.7-0.3c0.8-0.1,1.5-0.4,2-0.8c0.6-0.4,1-0.9,1.3-1.6s0.5-1.5,0.5-2.6V91.5c-0.1-2.3,0.6-4.2,2.2-5.5s3.7-2.3,6.5-2.7
		v-0.4c-5.6-0.9-8.5-3.6-8.7-8.3V63.4c0-1.1-0.2-1.9-0.5-2.6c-0.3-0.6-0.7-1.2-1.3-1.6c-0.5-0.4-1.2-0.7-2-0.8
		c-0.9-0.2-1.8-0.2-2.7-0.3v-8.4c3.3,0,5.9,0.2,8,0.6c2.1,0.4,3.8,1,5,1.9c1.2,0.8,2.1,1.9,2.6,3.2s0.7,2.9,0.7,4.7v11.8
		c0,1.2,0.2,2.2,0.6,3.1c0.4,0.8,1,1.5,1.8,2.1c0.8,0.5,1.8,0.9,3,1.2c1.2,0.2,2.6,0.3,4.1,0.3v8.9c-3.1,0-5.5,0.5-7.1,1.5
		s-2.4,2.7-2.4,5.1V105.9"/>
	<g>
		<path class="st2" d="M58.2,108.2c-0.8,0-1.6-0.1-2.2-0.2c-0.6-0.1-1.2-0.2-1.6-0.4v-4c0.6,0.2,1.2,0.3,1.8,0.3
			c0.7,0.1,1.4,0.2,2.1,0.2c0.6,0,1.2-0.1,1.8-0.2c0.6-0.1,1.2-0.4,1.7-0.8c0.5-0.4,0.9-1,1.2-1.7s0.5-1.7,0.5-2.8V62.1h4.7V98
			c0,1.7-0.2,3.3-0.7,4.5c-0.5,1.3-1.2,2.3-2,3.2c-0.9,0.8-1.9,1.5-3.1,1.9C61.2,108,59.5,108.2,58.2,108.2 M91.4,94.7h-0.2
			c-0.5,0.7-1.1,1.4-1.6,1.9s-1.1,1-1.8,1.3c-0.6,0.3-1.4,0.6-2.2,0.8c-0.8,0.2-1.7,0.2-2.8,0.2c-1.1,0-2.2-0.2-3.2-0.5
			c-0.9-0.3-1.8-0.8-2.5-1.5s-1.2-1.5-1.6-2.5s-0.6-2.2-0.6-3.6c0-2.7,1-4.8,2.9-6.3s4.8-2.3,8.8-2.4l4.5-0.1v-1.7
			c0-1.1-0.1-2-0.4-2.8c-0.2-0.7-0.6-1.3-1-1.8s-1-0.8-1.7-1s-1.4-0.3-2.3-0.3c-1.3,0-2.6,0.2-3.9,0.6c-1.2,0.4-2.3,0.9-3.4,1.4
			L76.9,73c1.2-0.7,2.6-1.2,4.1-1.7s3.1-0.7,4.8-0.7c1.7,0,3.2,0.2,4.4,0.5c1.2,0.3,2.3,0.9,3.1,1.6c0.8,0.7,1.4,1.7,1.8,2.8
			s0.6,2.5,0.6,4.2v18.7h-3.3L91.4,94.7z M84,95.3c1,0,2-0.2,2.8-0.5c0.9-0.3,1.6-0.8,2.2-1.4c0.6-0.6,1.1-1.5,1.5-2.4
			c0.4-1,0.5-2.1,0.5-3.4v-2.5l-3.6,0.2c-1.5,0.1-2.7,0.2-3.8,0.5c-1,0.3-1.8,0.6-2.4,1.1c-0.6,0.4-1,1-1.3,1.7s-0.4,1.4-0.4,2.3
			c0,1.5,0.4,2.7,1.2,3.4C81.6,95,82.7,95.3,84,95.3 M99.4,71.2h4.7l5,15.2l0.6,2.1l0.7,2.6l0.7,2.5l0.4,1.8h0.2l0.4-1.8l0.7-2.5
			l0.7-2.6l0.6-2.1l5-15.2h4.7l-9.3,27.3h-5.8L99.4,71.2z M142.2,94.7h-0.2c-0.5,0.7-1.1,1.4-1.6,1.9s-1.1,1-1.8,1.3
			c-0.6,0.3-1.4,0.6-2.2,0.8c-0.8,0.2-1.7,0.2-2.8,0.2s-2.2-0.2-3.2-0.5c-0.9-0.3-1.8-0.8-2.5-1.5s-1.2-1.5-1.6-2.5
			s-0.6-2.2-0.6-3.6c0-2.7,1-4.8,2.9-6.3s4.8-2.3,8.8-2.4l4.6-0.2v-1.7c0-1.1-0.1-2-0.4-2.8c-0.2-0.7-0.6-1.3-1-1.8s-1-0.8-1.7-1
			s-1.4-0.3-2.3-0.3c-1.3,0-2.6,0.2-3.9,0.6c-1.2,0.4-2.3,0.9-3.4,1.4l-1.6-3.4c1.2-0.7,2.6-1.2,4.1-1.7s3.1-0.7,4.8-0.7
			s3.2,0.2,4.4,0.5s2.3,0.9,3.1,1.6s1.4,1.7,1.8,2.8s0.6,2.5,0.6,4.2v18.7h-3.3L142.2,94.7z M134.9,95.3c1,0,2-0.2,2.8-0.5
			c0.9-0.3,1.6-0.8,2.2-1.4c0.6-0.6,1.1-1.5,1.5-2.4c0.4-1,0.5-2.1,0.5-3.4v-2.5l-3.6,0.2c-1.5,0.1-2.7,0.2-3.8,0.5
			c-1,0.3-1.8,0.6-2.4,1.1c-0.6,0.4-1,1-1.3,1.7s-0.4,1.4-0.4,2.3c0,1.5,0.4,2.7,1.2,3.4C132.4,95,133.6,95.3,134.9,95.3
			 M174.4,88.8c0,1.6-0.3,3.1-0.9,4.3c-0.6,1.3-1.4,2.3-2.4,3.2c-1.1,0.9-2.4,1.6-3.9,2c-1.5,0.4-3.2,0.7-5.2,0.7
			c-1.8,0-3.6-0.2-5.2-0.4c-1.6-0.3-2.9-0.7-4-1.3v-4.4l1.9,0.8l2.3,0.7l2.5,0.5c0.8,0.1,1.7,0.2,2.5,0.2c2.7,0,4.6-0.5,5.9-1.5
			c1.3-1,1.9-2.4,1.9-4.3c0-0.9-0.1-1.7-0.4-2.3c-0.2-0.7-0.7-1.3-1.3-1.8c-0.6-0.6-1.4-1.1-2.4-1.6s-2.3-1.1-3.8-1.7
			c-1.5-0.6-2.8-1.2-3.9-1.9c-1.1-0.7-2-1.5-2.7-2.3c-0.7-0.9-1.2-1.9-1.6-2.9c-0.3-1.1-0.5-2.3-0.5-3.7c0-1.5,0.3-2.8,0.8-3.9
			c0.5-1.1,1.3-2.1,2.2-2.9c1-0.8,2.1-1.4,3.4-1.8c1.3-0.4,2.8-0.6,4.4-0.6c2,0,3.8,0.2,5.3,0.6c1.6,0.4,3,0.8,4.2,1.4l-1.7,3.9
			c-1.1-0.5-2.3-0.9-3.7-1.2c-1.4-0.4-2.8-0.6-4.2-0.5c-2,0-3.6,0.5-4.7,1.4c-1.1,0.9-1.7,2.2-1.7,3.8c0,0.9,0.1,1.8,0.4,2.5
			c0.2,0.7,0.7,1.3,1.2,1.9c0.6,0.5,1.3,1.1,2.3,1.6c1.2,0.6,2.3,1.1,3.5,1.5c1.5,0.6,2.8,1.2,4,1.8c1.1,0.6,2.1,1.3,2.9,2.1
			c0.8,0.8,1.3,1.7,1.7,2.8C174.2,86.1,174.4,87.4,174.4,88.8 M191.2,99c-1.7,0-3.2-0.3-4.7-0.8c-1.4-0.5-2.8-1.4-3.8-2.5
			c-1.1-1.1-1.9-2.6-2.5-4.4s-0.9-3.9-0.9-6.4c0-2.6,0.3-4.8,0.9-6.6c0.6-1.8,1.5-3.3,2.6-4.4c1.1-1.1,2.4-2,3.9-2.5
			s3.1-0.8,4.8-0.8c1.3,0,2.5,0.1,3.8,0.4c1.2,0.3,2.3,0.6,3.1,1l-1.3,3.8c-0.4-0.2-0.8-0.3-1.3-0.5s-1-0.3-1.4-0.4
			c-0.5-0.1-1-0.2-1.5-0.3c-0.5-0.1-0.9-0.1-1.4-0.1c-2.6,0-4.5,0.8-5.7,2.5s-1.8,4.2-1.8,7.8c0,3.5,0.6,6.1,1.8,7.7
			c1.2,1.6,3.1,2.4,5.5,2.4c1.3,0,2.6-0.2,3.6-0.4c1.1-0.3,2.1-0.7,3-1.1v4c-0.9,0.5-1.9,0.9-2.9,1.1C193.9,98.9,192.7,99,191.2,99
			 M215.9,70.7l1.6,0.1c0.5,0,1,0.1,1.5,0.2l-0.6,4.2l-1.4-0.2c-0.5-0.1-0.9-0.1-1.4-0.1c-1,0-2,0.2-2.9,0.6c-0.9,0.4-1.6,1-2.2,1.8
			c-0.6,0.8-1.1,1.7-1.4,2.8c-0.3,1.1-0.5,2.3-0.5,3.7v14.7h-4.6V71.2h3.7l0.5,5h0.2l1.3-2.1c0.5-0.6,1-1.2,1.6-1.7s1.3-0.9,2-1.2
			C214.2,70.8,215.1,70.7,215.9,70.7"/>
		<path class="st3" d="M228.7,98.5h-4.5V71.2h4.5V98.5 M224.6,61.6c0.5-0.4,1.1-0.7,1.9-0.7c0.4,0,0.7,0.1,1,0.2
			c0.3,0.1,0.6,0.3,0.8,0.5s0.4,0.5,0.6,0.9c0.1,0.3,0.2,0.8,0.2,1.3c0,1-0.3,1.7-0.8,2.2s-1.1,0.7-1.9,0.7c-0.7,0-1.4-0.3-1.9-0.8
			s-0.7-1.2-0.7-2.1C223.8,62.8,224.1,62,224.6,61.6L224.6,61.6z"/>
		<path class="st2" d="M249.4,99c-1,0-1.9-0.1-2.7-0.3c-0.8-0.2-1.5-0.5-2.2-0.8c-0.6-0.4-1.2-0.8-1.7-1.3s-0.9-1-1.3-1.5h-0.3
			l0.1,1.6l0.1,1.3v1.1v11.7h-4.4V71.2h3.7l0.6,3.7h0.2c0.4-0.6,0.8-1.1,1.3-1.6s1-1,1.7-1.3c0.6-0.4,1.4-0.7,2.2-0.9
			c0.8-0.2,1.7-0.3,2.7-0.3c1.6,0,3,0.3,4.3,0.9c1.3,0.6,2.4,1.5,3.3,2.7s1.6,2.7,2.1,4.4s0.7,3.8,0.7,6.1s-0.2,4.4-0.7,6.2
			s-1.2,3.2-2.1,4.4s-2,2.1-3.3,2.7c-1.3,0.6-3,0.9-4.6,0.9 M248.6,74.4c-1.3,0-2.3,0.2-3.2,0.6c-0.9,0.4-1.6,1-2.1,1.7
			c-0.5,0.8-0.9,1.8-1.2,2.9c-0.2,1.2-0.4,2.5-0.4,4.1v1c0,1.7,0.1,3.2,0.3,4.5s0.6,2.4,1.1,3.3c0.5,0.9,1.3,1.6,2.2,2
			c0.9,0.4,2,0.7,3.4,0.7c2.2,0,3.9-0.9,4.9-2.7c1.1-1.8,1.6-4.4,1.6-7.8c0-3.5-0.5-6-1.6-7.7S250.9,74.4,248.6,74.4 M274.9,95.3
			c0.3,0,0.6,0,1-0.1l1.1-0.1l0.9-0.2l0.7-0.2v3.4c-0.2,0.1-0.5,0.2-0.8,0.3s-0.7,0.2-1.1,0.2c-0.4,0.1-0.8,0.1-1.2,0.2
			c-0.4,0-0.8,0.1-1.3,0.1c-1,0-1.9-0.1-2.9-0.4c-0.9-0.3-1.7-0.7-2.3-1.4c-0.6-0.6-1.1-1.5-1.5-2.6c-0.4-1.1-0.5-2.5-0.5-4.2V74.6
			h-3.9v-2l3.9-1.9L269,65h2.6v6.3h6.9v3.4h-6.9v15.9c0,1.6,0.3,2.8,0.8,3.6C272.8,94.9,273.8,95.3,274.9,95.3"/>
	</g>
</g>
</svg>
