<svg width="40" height="40" viewBox="0 0 40 40" fill="none" xmlns="http://www.w3.org/2000/svg">
<path d="M15.8333 33.8477C15.8333 31.3252 14.2943 29.2257 12.0833 28.2106V21.4584C13.5521 22.2966 15.263 22.7734 17.0833 22.7734H24.5833C27.3411 22.7734 29.5833 24.9806 29.5833 27.6953V28.2106C27.3724 29.2257 25.8333 31.3252 25.8333 33.8477C25.8333 37.2453 28.6302 40 32.0833 40C35.5365 40 38.3333 37.2453 38.3333 33.8477C38.3333 31.3252 36.7943 29.2257 34.5833 28.2106V27.6953C34.5833 22.2582 30.1068 17.8516 24.5833 17.8516H17.0833C14.3255 17.8516 12.0833 15.6444 12.0833 12.9297V12.4144C14.2943 11.4685 15.8333 9.2998 15.8333 6.77734C15.8333 3.37817 13.0365 0.624999 9.58333 0.624999C6.13177 0.624999 3.33333 3.37817 3.33333 6.77734C3.33333 9.2998 4.8763 11.4685 7.08333 12.4144V28.2106C4.8763 29.2257 3.33333 31.3252 3.33333 33.8477C3.33333 37.2453 6.13177 40 9.58333 40C13.0365 40 15.8333 37.2453 15.8333 33.8477ZM9.58333 32.002C10.6185 32.002 11.4583 32.8287 11.4583 33.8477C11.4583 34.8666 10.6185 35.6934 9.58333 35.6934C8.54817 35.6934 7.70833 34.8666 7.70833 33.8477C7.70833 32.8287 8.54817 32.002 9.58333 32.002ZM32.0833 35.6934C31.0443 35.6934 30.2083 34.8666 30.2083 33.8477C30.2083 32.8287 31.0443 32.002 32.0833 32.002C33.1224 32.002 33.9583 32.8287 33.9583 33.8477C33.9583 34.8666 33.1224 35.6934 32.0833 35.6934ZM9.58333 4.93164C10.6185 4.93164 11.4583 5.75452 11.4583 6.77734C11.4583 7.80017 10.6185 8.62305 9.58333 8.62305C8.54817 8.62305 7.70833 7.80017 7.70833 6.77734C7.70833 5.75452 8.54817 4.93164 9.58333 4.93164Z" fill="#DDF247"/>
</svg>
