<svg width="83" height="83" viewBox="0 0 83 83" fill="none" xmlns="http://www.w3.org/2000/svg">
<rect width="83" height="83" rx="10" fill="white"/>
<path d="M36.8333 54.8477C36.8333 52.3252 35.2943 50.2257 33.0833 49.2106V42.4584C34.5521 43.2966 36.263 43.7734 38.0833 43.7734H45.5833C48.3411 43.7734 50.5833 45.9806 50.5833 48.6953V49.2106C48.3724 50.2257 46.8333 52.3252 46.8333 54.8477C46.8333 58.2453 49.6302 61 53.0833 61C56.5365 61 59.3333 58.2453 59.3333 54.8477C59.3333 52.3252 57.7943 50.2257 55.5833 49.2106V48.6953C55.5833 43.2582 51.1068 38.8516 45.5833 38.8516H38.0833C35.3255 38.8516 33.0833 36.6444 33.0833 33.9297V33.4144C35.2943 32.4685 36.8333 30.2998 36.8333 27.7773C36.8333 24.3782 34.0365 21.625 30.5833 21.625C27.1318 21.625 24.3333 24.3782 24.3333 27.7773C24.3333 30.2998 25.8763 32.4685 28.0833 33.4144V49.2106C25.8763 50.2257 24.3333 52.3252 24.3333 54.8477C24.3333 58.2453 27.1318 61 30.5833 61C34.0365 61 36.8333 58.2453 36.8333 54.8477ZM30.5833 53.002C31.6185 53.002 32.4583 53.8287 32.4583 54.8477C32.4583 55.8666 31.6185 56.6934 30.5833 56.6934C29.5482 56.6934 28.7083 55.8666 28.7083 54.8477C28.7083 53.8287 29.5482 53.002 30.5833 53.002ZM53.0833 56.6934C52.0443 56.6934 51.2083 55.8666 51.2083 54.8477C51.2083 53.8287 52.0443 53.002 53.0833 53.002C54.1224 53.002 54.9583 53.8287 54.9583 54.8477C54.9583 55.8666 54.1224 56.6934 53.0833 56.6934ZM30.5833 25.9316C31.6185 25.9316 32.4583 26.7545 32.4583 27.7773C32.4583 28.8002 31.6185 29.623 30.5833 29.623C29.5482 29.623 28.7083 28.8002 28.7083 27.7773C28.7083 26.7545 29.5482 25.9316 30.5833 25.9316Z" fill="#DDF247"/>
</svg>
