<svg width="83" height="83" viewBox="0 0 83 83" fill="none" xmlns="http://www.w3.org/2000/svg">
<rect width="83" height="83" rx="10" fill="white"/>
<path d="M49.5278 49.8318C47.21 49.8318 45.2808 51.2239 44.348 53.2238L41.6132 53.2238C40.3624 53.2238 39.3519 52.2133 39.3519 50.9625L39.3519 43.0125L44.8992 43.0125L44.8992 38.8079L39.3519 38.8079L39.3519 31.1759C39.3519 29.9251 40.3624 28.9146 41.6132 28.9146L44.348 28.9146C45.2808 30.9145 47.21 32.3066 49.5278 32.3066C52.6499 32.3066 55.1811 29.7767 55.1811 26.6533C55.1811 23.5298 52.6499 21 49.5278 21C47.21 21 45.2808 22.3921 44.348 24.392L41.6132 24.392C37.8679 24.392 34.8292 27.4306 34.8292 31.1759L34.8292 38.8079L29.8331 38.8079C28.9639 36.808 26.9711 35.4159 24.6533 35.4159C21.5298 35.4159 19 37.9458 19 41.0692C19 44.1927 21.5298 46.7225 24.6533 46.7225C26.9711 46.7225 28.9639 45.3304 29.8331 43.3305L34.8292 43.3305L34.8292 50.9625C34.8292 54.7092 37.8679 57.7464 41.6132 57.7464L44.348 57.7464C45.2808 59.7428 47.21 61.1384 49.5278 61.1384C52.6499 61.1384 55.1811 58.6072 55.1811 55.4851C55.1811 52.3617 52.6499 49.8318 49.5278 49.8318ZM47.8318 55.4851C47.8318 54.5488 48.5915 53.7891 49.5278 53.7891C50.4642 53.7891 51.2238 54.5488 51.2238 55.4851C51.2238 56.4215 50.4642 57.1811 49.5278 57.1811C48.5915 57.1811 47.8318 56.4215 47.8318 55.4851ZM47.8318 26.6533C47.8318 25.7134 48.5915 24.9573 49.5278 24.9573C50.4642 24.9573 51.2238 25.7134 51.2238 26.6533C51.2238 27.5931 50.4642 28.3493 49.5278 28.3493C48.5915 28.3493 47.8318 27.5931 47.8318 26.6533ZM26.3493 41.0692C26.3493 42.0091 25.5931 42.7652 24.6533 42.7652C23.7134 42.7652 22.9573 42.0091 22.9573 41.0692C22.9573 40.1293 23.7134 39.3732 24.6533 39.3732C25.5931 39.3732 26.3493 40.1293 26.3493 41.0692Z" fill="#DDF247"/>
<path d="M50.0225 35.1332C46.8612 35.1332 44.2985 37.775 44.2985 41.0339C44.2985 44.2927 46.8612 46.9345 50.0225 46.9345C53.1838 46.9345 55.7465 44.2927 55.7465 41.0339C55.7465 37.775 53.1838 35.1332 50.0225 35.1332ZM50.0225 42.7843C49.0847 42.7843 48.3244 42.0006 48.3244 41.0339C48.3244 40.0671 49.0847 39.2834 50.0225 39.2834C50.9603 39.2834 51.7205 40.0671 51.7205 41.0339C51.7205 42.0006 50.9603 42.7843 50.0225 42.7843Z" fill="#DDF247"/>
</svg>
