<svg width="342" height="171" viewBox="0 0 342 171" fill="none" xmlns="http://www.w3.org/2000/svg">
<path d="M83.8651 85.2504C83.8651 90.6564 79.4826 95.0388 74.0767 95.0388C68.6707 95.0388 64.2883 90.6564 64.2883 85.2504C64.2883 79.8445 68.6707 75.4621 74.0767 75.4621C79.4826 75.4621 83.8651 79.8445 83.8651 85.2504Z" fill="#4D4D4D" stroke="#4D4D4D" stroke-width="0.19708"/>
<path fill-rule="evenodd" clip-rule="evenodd" d="M74.077 65.1479C87.3515 65.1479 99.6832 67.0527 108.981 70.2537C120.184 74.1106 127.072 79.9566 127.072 85.2501C127.072 90.7664 119.772 96.977 107.742 100.963C98.6465 103.976 86.6779 105.549 74.077 105.549C61.1576 105.549 48.9236 104.073 39.7259 100.93C28.0891 96.9523 21.0801 90.6614 21.0801 85.2501C21.0801 79.9995 27.6567 74.1987 38.7021 70.3477C48.0348 67.0939 60.671 65.1479 74.0752 65.1479H74.077Z" stroke="#4D4D4D" stroke-width="4.72992"/>
<path fill-rule="evenodd" clip-rule="evenodd" d="M56.5774 75.2571C63.2092 63.7579 71.0195 54.0268 78.4376 47.5713C87.3752 39.7933 95.8805 36.7472 100.466 39.3915C105.245 42.1472 106.978 51.5738 104.421 63.9863C102.489 73.3708 97.8711 84.5244 91.5759 95.4403C85.1215 106.632 77.731 116.492 70.414 122.888C61.1552 130.982 52.2038 133.911 47.5163 131.207C42.9677 128.586 41.2282 119.99 43.4103 108.497C45.254 98.7871 49.8809 86.8687 56.5753 75.2569L56.5774 75.2571Z" stroke="#4D4D4D" stroke-width="4.72992"/>
<path fill-rule="evenodd" clip-rule="evenodd" d="M56.5939 95.47C49.9434 83.9838 45.4155 72.3551 43.5255 62.7044C41.2504 51.0767 42.859 42.1864 47.4403 39.5345C52.2144 36.7707 61.2468 39.9768 70.7234 48.3913C77.8884 54.753 85.2458 64.3227 91.5593 75.2283C98.0322 86.4092 102.883 97.7368 104.771 107.27C107.159 119.334 105.226 128.551 100.543 131.263C95.9987 133.893 87.6833 131.108 78.8166 123.478C71.325 117.031 63.31 107.07 56.5939 95.4698V95.47Z" stroke="#4D4D4D" stroke-width="4.72992"/>
<path fill-rule="evenodd" clip-rule="evenodd" d="M183.824 110.51L171.705 92.2018C177.83 91.6613 183.349 87.2236 183.349 79.1163C183.349 70.8667 177.494 65.5869 169.282 65.5869H151.246V110.476H156.833V92.6399H165.786L177.227 110.476L183.824 110.51ZM168.613 87.7613H156.836V70.5993H168.613C173.933 70.5993 177.565 74.0982 177.565 79.1476C177.565 84.1969 173.93 87.767 168.613 87.767V87.7613ZM204.621 111.315C209.941 111.315 214.313 109.566 217.545 106.337L215.121 103.037C212.561 105.663 208.794 107.142 205.094 107.142C198.096 107.142 193.786 102.027 193.382 95.9056H219.695V94.6255C219.695 84.8682 213.906 77.1933 204.078 77.1933C194.79 77.1933 188.062 84.8 188.062 94.2216C188.062 104.386 194.995 111.29 204.618 111.29L204.621 111.315ZM214.72 92.199H193.385C193.655 87.2208 197.083 81.3607 204.018 81.3607C211.423 81.3607 214.652 87.3516 214.72 92.199ZM253.22 110.507V88.1624C253.22 80.2883 247.502 77.1904 240.635 77.1904C235.316 77.1904 231.145 78.9399 227.646 82.5754L230.002 86.0744C232.895 82.9793 236.061 81.5655 239.964 81.5655C244.675 81.5655 248.176 84.0546 248.176 88.4298V94.2842C245.551 91.2546 241.85 89.8407 237.406 89.8407C231.888 89.8407 226.028 93.2743 226.028 100.542C226.028 107.609 231.882 111.312 237.406 111.312C241.782 111.312 245.485 109.765 248.176 106.804V110.502L253.22 110.507ZM239.224 107.68C234.513 107.68 231.213 104.721 231.213 100.614C231.213 96.4404 234.513 93.4791 239.224 93.4791C242.791 93.4791 246.222 94.8246 248.176 97.5186V103.643C246.225 106.334 242.791 107.68 239.224 107.68ZM277.627 111.315C283.55 111.315 287.049 108.892 289.541 105.663L286.176 102.568C284.022 105.461 281.263 106.806 277.926 106.806C270.994 106.806 266.69 101.421 266.69 94.2216C266.69 87.0217 270.996 81.7049 277.926 81.7049C281.291 81.7049 284.051 82.985 286.176 85.9435L289.541 82.8485C287.052 79.6169 283.55 77.1961 277.627 77.1961C267.936 77.1961 261.407 84.6008 261.407 94.2244C261.407 103.916 267.936 111.293 277.627 111.293V111.315ZM304.823 111.315C307.781 111.315 309.602 110.439 310.882 109.23L309.403 105.461C308.728 106.201 307.411 106.806 305.969 106.806C303.75 106.806 302.669 105.057 302.669 102.633V82.4417H309.269V78.0011H302.669V69.1172H297.62V78.0011H292.235V82.4446H297.62V103.714C297.62 108.562 300.044 111.321 304.823 111.321V111.315Z" fill="#4D4D4D"/>
</svg>
