<svg width="323" height="162" viewBox="0 0 323 162" fill="none" xmlns="http://www.w3.org/2000/svg">
<path d="M87.1569 99.1911C90.8677 98.8554 93.5635 95.4857 93.5635 91.7749C93.5635 88.0696 90.1937 85.0355 86.4857 85.0355H86.1474C82.101 85.0355 79.0669 88.4052 79.4052 92.4489C79.4052 94.4734 80.4175 96.157 81.427 97.1692C77.045 105.598 70.6412 112.001 60.5266 117.06C53.7871 120.765 46.7066 121.778 39.6261 121.104C33.8962 120.433 29.5115 117.734 26.4774 113.688C22.4337 107.284 22.0953 100.542 25.4678 93.7995C27.8279 89.0791 31.8716 85.3684 34.2318 83.6849C33.5578 81.9987 32.8839 79.3029 32.5456 77.281C14.0053 90.7654 16.0271 108.632 21.7597 117.396C25.8034 123.802 34.5674 127.846 44.0081 127.846C46.7066 127.846 49.064 127.51 51.7625 126.836C67.6044 123.128 80.0764 113.688 87.1569 99.1911Z" fill="#4D4D4D"/>
<path d="M109.408 83.3472C99.6344 71.8874 85.4734 65.8191 69.2933 65.8191H67.2687C66.2591 63.4563 63.5633 62.1111 60.8649 62.1111H60.5265C56.4828 62.1111 53.4487 65.4808 53.7871 69.5272C53.7871 73.2326 57.1568 76.2667 60.8649 76.2667H61.2005C63.899 76.2667 66.2591 74.2475 67.607 71.8874H69.9672C79.7408 71.8874 88.8432 74.5832 96.9359 80.3158C103.34 84.3595 107.722 90.0894 110.42 96.4959C112.442 101.89 112.442 106.946 110.082 111.666C106.377 118.406 100.644 122.117 92.5539 122.117C87.4953 122.117 82.7776 120.431 80.0791 119.418C78.7312 120.769 76.0354 122.791 74.3492 124.139C79.7435 126.837 85.4734 128.185 90.8677 128.185C103.004 128.185 112.106 121.443 115.476 114.701C119.184 106.946 119.184 94.1358 109.408 83.3472Z" fill="#4D4D4D"/>
<path d="M44.682 101.216C44.682 104.921 48.0544 107.955 51.7625 107.955H52.0981C56.1445 107.955 59.1786 104.586 58.8403 100.542C58.8403 96.8339 55.4706 93.7998 51.7625 93.7998H50.7475C45.6916 85.0331 43.3314 75.5951 44.0081 65.4805C44.6793 57.7288 47.0422 51.3222 51.4215 45.5923C55.1296 40.872 62.2101 38.5118 66.9304 38.5118C80.4147 38.1762 86.1446 55.0303 86.483 61.7725C88.1665 62.1108 90.865 63.1204 92.8868 63.7943C91.2006 43.2322 78.7285 32.4436 66.2564 32.4436C54.7912 32.4436 44.3437 40.872 39.959 53.0085C34.2291 69.1886 37.9371 85.0331 45.0176 97.1696C45.0176 98.5175 44.6793 99.8654 44.6793 101.216" fill="#4D4D4D"/>
<path d="M143.033 84.6762V100.875H132.91V57.4846H147.082C150.264 57.4846 152.868 57.7719 155.183 58.3519C157.497 58.9292 159.232 59.7991 160.679 60.9564C162.124 62.1109 162.991 63.5609 163.861 65.0054C164.439 66.4518 164.728 68.1872 164.728 70.2118C164.728 71.659 164.438 72.8163 164.148 74.2608C163.86 75.419 163.282 76.5762 162.414 77.7326C161.546 78.8899 160.679 79.7571 159.809 80.6244C158.655 81.4944 157.497 82.0743 156.05 82.6516C156.627 82.9389 157.497 83.5189 158.075 83.8062C158.652 84.3862 159.229 84.9635 159.522 85.5434L168.777 100.585H159.522C157.785 100.585 156.627 100.008 155.763 98.5606L148.529 85.8334C148.302 85.3164 147.889 84.9034 147.372 84.6762C147.082 84.3862 146.215 84.3862 145.635 84.3862H143.03L143.033 84.6762ZM143.033 77.7326H147.082C148.529 77.7326 149.687 77.4426 150.554 77.1553C151.421 76.8653 152.288 76.2854 152.868 75.7081C153.448 75.1308 154.023 74.2608 154.313 73.6835C154.603 72.8163 154.603 71.9463 154.603 71.079C154.603 69.0545 154.025 67.6082 152.868 66.74C151.711 65.5854 149.687 65.0054 147.082 65.0054H143.033V77.7326ZM185.843 69.3445C187.871 69.3445 189.895 69.6345 191.34 70.2118C192.79 70.7891 194.522 71.659 195.679 73.1036C196.836 74.2608 197.993 75.7081 198.573 77.4426C199.151 79.1798 199.728 81.2017 199.728 83.5189V85.2534C199.728 85.8334 199.441 86.1207 199.441 86.4107C199.151 86.7007 199.151 86.9907 198.861 86.9907C198.573 86.9907 198.283 87.278 197.706 87.278H179.77C180.06 89.8825 180.927 91.617 182.084 92.7743C183.239 93.9315 184.976 94.5115 187.001 94.5115C188.158 94.5115 189.028 94.5115 189.895 94.2215C190.763 93.9315 191.34 93.6416 191.92 93.3543L193.654 92.487C194.234 92.197 194.812 92.197 195.392 92.197C196.259 92.197 196.546 92.487 197.126 93.0643L199.731 96.2461C198.882 97.3449 197.794 98.2357 196.549 98.8506L193.077 100.585L189.605 101.452C188.451 101.742 187.291 101.742 186.133 101.742C183.819 101.742 181.794 101.452 180.06 100.588C178.035 100.008 176.588 98.8506 175.141 97.4033C173.695 95.957 172.537 94.2206 171.669 92.1943C170.802 90.1725 170.515 87.858 170.515 84.9635C170.515 82.9389 170.802 80.9144 171.669 79.1799C172.249 77.4426 173.406 75.7081 174.854 74.2608C176.298 72.8163 177.745 71.6563 179.77 71.079C181.504 69.6345 183.529 69.3445 185.843 69.3445ZM186.133 75.7081C184.399 75.7081 182.952 76.2854 182.084 77.1553C181.217 78.0226 180.35 79.4698 180.06 81.4944H191.632C191.632 80.6244 191.632 80.0471 191.34 79.4698C191.053 78.8899 190.763 78.0199 190.473 77.7326C190.183 77.1553 189.605 76.8653 188.738 76.2854C187.871 75.9981 187.001 75.7081 186.133 75.7081ZM226.919 100.875C226.342 100.875 225.765 100.875 225.475 100.585C225.119 100.256 224.825 99.8645 224.608 99.4305L224.028 97.1133C223.418 97.7638 222.739 98.3463 222.003 98.8506C221.426 99.4279 220.559 99.7178 219.689 100.295L217.084 101.165C216.22 101.452 215.062 101.452 214.192 101.452C212.458 101.452 211.011 101.165 209.853 100.298C208.409 99.7178 207.249 98.5606 206.384 97.1133C205.514 95.6688 204.647 94.2215 204.07 92.197C203.2 90.1725 202.912 87.858 202.912 85.5434C202.912 83.2289 203.2 81.2044 203.78 79.1799C204.358 77.1553 205.226 75.419 206.384 73.9708C207.541 72.5263 208.987 71.3699 210.723 70.5017C212.458 69.6345 214.192 69.3445 216.22 69.3445C217.954 69.3445 219.111 69.6345 220.269 69.9218C221.423 70.5018 222.293 71.079 223.16 71.659V56.0374H232.418V100.878L226.919 100.875ZM217.374 94.2215C217.954 94.2215 218.531 94.2215 219.111 93.9316C219.689 93.9316 220.266 93.6416 220.559 93.3543C220.846 93.0643 221.426 92.7743 221.713 92.487L222.87 91.3297V78.3126C222.311 77.4955 221.499 76.885 220.559 76.5753C219.689 76.2854 218.821 75.9981 217.954 75.9981C217.149 76.0145 216.358 76.2118 215.64 76.5753C215.062 76.8653 214.192 77.4426 213.905 78.3126C213.325 79.1799 213.035 80.0471 212.748 81.2044C212.373 82.6207 212.178 84.0785 212.168 85.5434C212.168 87.278 212.168 88.4352 212.458 89.5925C212.748 90.7507 213.037 91.6188 213.325 92.197C213.652 92.8122 214.156 93.3153 214.772 93.6416C216.22 93.9315 216.794 94.2215 217.374 94.2215ZM248.327 69.9218V89.5925C248.327 91.0397 248.617 92.197 249.482 93.0643C250.062 93.9315 251.219 94.2189 252.666 94.2189C253.824 94.2189 254.691 93.9315 255.558 93.6416C256.426 93.3534 257.295 92.7752 258.163 91.907V69.9218H267.418V100.878H261.635C260.477 100.878 259.61 100.298 259.32 99.4305L258.74 97.696C258.163 98.2733 257.586 98.8506 257.006 99.1406C256.428 99.7205 255.558 100.011 254.981 100.298C254.114 100.588 253.534 100.878 252.666 101.168C251.799 101.455 250.932 101.455 249.775 101.455C248.19 101.472 246.617 101.178 245.146 100.588C243.698 100.011 242.831 99.1406 241.964 97.9833C241.097 96.826 240.517 95.6715 239.939 94.2242C239.359 92.777 239.359 91.3324 239.359 89.5952V69.9245L248.327 69.9218ZM281.883 84.6762L272.047 69.6345H281.015C281.593 69.6345 282.17 69.6345 282.463 69.9218L283.33 70.7891L288.826 80.0471C288.826 79.7571 289.116 79.4698 289.403 78.8899C289.693 78.5999 289.693 78.3126 289.983 77.7353L294.032 70.7891C294.322 70.2109 294.612 69.9218 294.9 69.9218C295.19 69.6345 295.48 69.6345 296.057 69.6345H304.445L294.61 84.0962L305.025 100.585H295.48C294.943 100.576 294.428 100.37 294.032 100.008C293.742 99.7178 293.165 99.4279 293.165 98.8506L287.669 89.3025C287.669 89.5925 287.379 89.8825 287.379 90.1725C287.379 90.4598 287.089 90.7498 286.802 91.0397L282.173 98.8506C281.883 99.1379 281.593 99.7178 281.305 100.005C280.91 100.369 280.395 100.575 279.858 100.585H271.757L281.883 84.6762Z" fill="#4D4D4D"/>
</svg>
