<?xml version="1.0" encoding="utf-8"?>
<!-- Generator: Adobe Illustrator 25.4.1, SVG Export Plug-In . SVG Version: 6.00 Build 0)  -->
<svg version="1.1" id="Layer_1" xmlns="http://www.w3.org/2000/svg" xmlns:xlink="http://www.w3.org/1999/xlink" x="0px" y="0px"
	 viewBox="0 0 330 166" style="enable-background:new 0 0 330 166;" xml:space="preserve">
<style type="text/css">
	.st0{fill-rule:evenodd;clip-rule:evenodd;fill:#FFFFFF;}
	.st1{fill:#4D4D4D;}
	.st2{fill-rule:evenodd;clip-rule:evenodd;fill:#4D4D4D;}
</style>
<path class="st0" d="M59.9,94.5c2.8,0,5,2.2,5.1,4.9c0,2.8-2.2,5-4.9,5.1c0,0-0.1,0-0.1,0c-2.8,0-5-2.3-4.9-5.1
	C55,96.7,57.2,94.5,59.9,94.5"/>
<g transform="matrix(.229053 0 0 .229053 -.144648 10.46444)">
	<path class="st1" d="M730.1,310.2h-19.4v-75.7c-0.1-7.5,0.2-15,0.8-22.4c-0.6,3.7-1.8,7.4-3.4,10.8l-35.5,88h-13.5l-35.6-87.1
		l-3.4-11.7c0.8,5,0.8,12.5,0.8,23.3v75.8h-18.6V193.9h27.9l31.3,78.1l5.1,13.3c1.3-4.8,3-9.6,5.1-14.1l32.1-78.1h27L730.1,310.2z
		 M766.4,208.8c-3.2,0.2-6.2-1-8.4-3.3c-2.3-1.8-3.5-4.6-3.4-7.5c-0.3-2.9,1-5.8,3.4-7.5c2.4-1.9,5.4-3.1,8.4-3.3
		c3.2-0.2,6.2,1,8.4,3.3c2.3,1.8,3.5,4.6,3.4,7.5c0.3,2.9-1,5.8-3.4,7.5C772.7,207.8,769.6,209,766.4,208.8z M775.7,310.2h-19.4
		v-83.9h19.4V310.2z M862.7,306.9c-6.8,4.1-15.2,5.9-24.5,5.9c-12.7,0-22.8-4.1-30.4-11.6c-7.6-7.5-11.7-17.4-11.7-29.9
		c0-14.1,4.2-24.9,12.7-33.2c8.4-8.3,19.4-12.5,33.8-12.5c7,0,13.9,1.4,20.3,4.1V247c-5.4-4-11.9-6.3-18.6-6.6
		c-8.4,0-15.2,2.5-20.3,8.3c-5.2,5.9-7.9,13.6-7.6,21.5c0,8.3,2.5,15.8,7.6,20.8c5.2,5,12.2,7.7,19.4,7.5c7.2-0.1,14.1-2.7,19.4-7.5
		L862.7,306.9L862.7,306.9z M931.2,244.6c-3.1-1.8-6.6-2.7-10.2-2.5c-5.9,0-10.2,2.5-14.4,7.5s-5.9,11.7-5.9,20.8v39.9h-19.4v-84
		h19.4v17.4c1.6-5.3,4.5-10.2,8.4-14.1c3.7-3.3,8.5-5.1,13.5-5c2.6,0,5.2,0.5,7.6,1.7L931.2,244.6z M982.7,312.7
		c-13.5,0-23.7-4.1-31.3-11.6c-7.6-7.5-11.7-18.3-11.7-30.7c0-14.1,4.2-24.9,12.7-33.2c8.4-8.3,19.4-11.7,33-11.7
		c13.5,0,23.7,4.1,31.3,11.7c7.6,7.6,10.9,18.2,10.9,32.3c0.4,11.9-3.8,23.5-11.7,32.4C1006.3,309.2,994.6,313,982.7,312.7
		L982.7,312.7z M983.5,239.6c-7.6,0-13.5,2.5-17.7,7.5c-4.2,5-6.8,12.5-6.8,21.5s2.5,15.8,6.8,20.8c4.2,5,10.2,7.5,17.7,7.5
		s13.5-2.5,17.7-7.5s5.9-11.6,5.9-21.5c0-9.1-1.7-16.6-5.9-21.5C996.5,241.8,990.1,239.4,983.5,239.6L983.5,239.6z M1041,307.7
		v-17.5c7.6,5,15.2,8.3,23.7,8.3c11.8,0,17.7-3.3,17.7-10c-0.2-1.8-0.8-3.5-1.7-5c-1-1.5-2.5-2.7-4.2-3.3c-1.9-1-3.9-1.8-5.9-2.5
		l-7.6-2.5c-3.2-1.2-6.3-2.6-9.3-4.1c-2.4-1.5-4.7-3.1-6.8-5c-1.9-1.9-3.3-4.1-4.2-6.6c-1-2.6-1.6-5.5-1.7-8.3
		c-0.1-3.8,0.8-7.5,2.5-10.8c1.6-3.3,4.3-5.9,7.6-7.5c3.4-2.5,6.8-3.3,11-5c4.2-1,8.4-1.5,12.7-1.7c7.2-0.2,14.4,0.9,21.1,3.3v16.6
		c-6-4.1-13.1-6.1-20.3-5.9c-2.3-0.2-4.6,0.1-6.8,0.8c-1.7,0.8-3.4,0.8-5.1,1.7c-1.5,0.6-2.7,1.8-3.4,3.3c-0.7,1.3-1,2.7-0.8,4.1
		c-0.1,1.7,0.2,3.4,0.8,5c0.7,1.5,1.9,2.7,3.4,3.3c1.9,1,3.9,1.8,5.9,2.5c2.5,0.8,4.2,1.7,7.6,2.5c3.2,1.7,6.6,3.1,10.1,4.1
		c3.4,0.8,5.1,3.3,7.6,5c1.9,2.1,3.6,4.3,5.1,6.6c1,2.9,1.6,6,1.7,9.1c0,4.1-0.8,8.3-3.4,10.8c-1.9,3.1-4.5,5.7-7.6,7.5
		c-3.8,2-7.7,3.6-11.7,5C1066.3,315.1,1052.8,313.6,1041,307.7L1041,307.7z M1158.5,312.7c-13.5,0-23.7-4.1-31.3-11.6
		c-7.6-7.5-11.7-18.3-11.7-30.7c0-14.1,4.2-24.9,12.7-33.2c8.4-8.3,19.4-11.7,33-11.7s23.7,4.1,31.3,11.7c7.6,7.6,11,18.3,11,32.4
		c0.4,11.9-3.8,23.5-11.7,32.4C1182.1,309.1,1170.4,312.9,1158.5,312.7L1158.5,312.7z M1159.3,239.6c-7.6,0-13.5,2.5-17.7,7.5
		c-4.2,5-6.8,12.5-6.8,21.5s2.5,15.8,6.8,20.8c4.2,5,10.2,7.5,17.7,7.5c7.6,0,13.5-2.5,17.7-7.5c4.2-5,5.9-11.6,5.9-21.5
		c0-9.1-1.7-16.6-5.9-21.5C1172.3,241.8,1165.9,239.3,1159.3,239.6L1159.3,239.6z M1270,202.2c-2.8-1.7-6-2.6-9.3-2.5
		c-9.3,0-14.4,5-14.4,15.8v11.6h19.4v15h-19.4v69h-19.4v-69h-14.4v-15h14.4v-13.3c0-9.1,2.5-15.8,8.4-20.8c9.4-7.2,21.7-9.4,33-5.9
		v15L1270,202.2L1270,202.2z M1325.8,309.3c-3.4,1.7-8.4,2.5-15.2,2.5c-16.9,0-24.5-7.5-24.5-23.3v-47.3h-14.4v-15h14.4v-19.1
		l19.4-5v24.9h20.3v15h-20.3v41.6c-0.3,3.8,0.6,7.5,2.5,10.8c1.7,2.5,5.1,3.3,9.3,3.3c3,0,6-0.9,8.4-2.6L1325.8,309.3L1325.8,309.3z
		 M720.9,482.7h-22l-11-29.9h-47.3l-10.2,29.9h-22l44.8-117.2h21.9L720.9,482.7z M682.9,437L666,390.5c-0.7-2.4-1.3-4.9-1.7-7.5
		c-0.4,2.5-0.9,5-1.7,7.5L646.5,437H682.9z M797.9,407.1l-45.6,60.6h45.6v15h-72.7v-7.3l47.3-61.5h-42.2v-15h68.4v8.3L797.9,407.1z
		 M889,482.7h-19.4v-13.3c-5.1,9.6-15.3,15.4-26.2,15c-20.3,0-30.4-11.6-30.4-35.7v-49.9h19.4V447c0,15,5.9,22.4,17.7,22.4
		c5.4,0.2,10.7-1.9,14.4-5.9c3.8-4.7,5.9-10.6,5.9-16.6v-48.1h19.4L889,482.7z M963.4,417.1c-3.1-1.8-6.6-2.7-10.2-2.5
		c-5.9,0-10.2,2.5-14.4,7.5c-4.2,5-5.9,11.7-5.9,20.8v39.9h-19.4v-83.9H933v17.4c1.6-5.3,4.5-10.2,8.4-14.1c3.7-3.3,8.4-5.1,13.4-5
		c2.6,0,5.2,0.5,7.6,1.7L963.4,417.1z M1049.6,446.2h-58.3c0,7.5,2.5,14.1,7.6,18.3c4.2,4.1,11,6.6,19.4,6.6
		c9.2,0.2,18.1-2.7,25.4-8.3v15c-7.7,5-17.8,7.5-30.5,7.5c-11.1,0.4-21.8-3.9-29.6-11.7c-7.6-7.5-11-18.3-11-32.4
		c-0.4-11.7,3.8-23,11.7-31.6c7.6-8.2,18.4-12.8,29.6-12.5c11.7,0,20.3,3.3,27,10.8s9.3,17.4,9.3,30.7L1049.6,446.2z M1031,432.9
		c0-6.6-1.7-12.5-5.1-15.8c-3.3-4-8.3-6.2-13.5-5.9c-5.4-0.2-10.7,1.9-14.4,5.9c-4.2,4.1-5.9,9.1-6.8,15.8L1031,432.9z"/>
	<path class="st2" d="M380.7,198.1l-63,126.9l111,128.6L222.7,477l319.5,3.3L380.7,198.1z M368.3,148L223.6,269.1L116.2,450.3
		l91.4-9.2L368.3,148z"/>
</g>
</svg>
