<?xml version="1.0" encoding="utf-8"?>
<!-- Generator: Adobe Illustrator 25.4.1, SVG Export Plug-In . SVG Version: 6.00 Build 0)  -->
<svg version="1.1" id="Layer_1" xmlns="http://www.w3.org/2000/svg" xmlns:xlink="http://www.w3.org/1999/xlink" x="0px" y="0px"
	 viewBox="0 0 330 166" style="enable-background:new 0 0 330 166;" xml:space="preserve">
<style type="text/css">
	.st0{fill-rule:evenodd;clip-rule:evenodd;fill:#FFFFFF;}
	.st1{fill:#4D4D4D;}
</style>
<path class="st0" d="M59.9,94.5c2.8,0,5,2.2,5.1,4.9c0,2.8-2.2,5-4.9,5.1c0,0-0.1,0-0.1,0c-2.8,0-5-2.3-4.9-5.1
	C55,96.7,57.2,94.5,59.9,94.5"/>
<g>
	<path class="st1" d="M103.4,77.2c-2-1.4-7.3-1.9-11.1-0.9c-0.2-3.8-2.2-7.1-5.8-9.9l-1.3-0.9l-0.9,1.3c-1.8,2.7-2.5,6.2-2.2,9.4
		c0.2,2,0.9,4.2,2.2,5.8c-5,2.9-9.6,2.2-30,2.2H22.7c-0.1,4.6,0.6,13.5,6.3,20.7c0.6,0.8,1.3,1.6,2,2.3c4.6,4.6,11.5,8,21.9,8
		c15.8,0,29.3-8.5,37.6-29.2c2.7,0,9.9,0.5,13.4-6.3c0.1-0.1,0.9-1.8,0.9-1.8L103.4,77.2L103.4,77.2z M43.2,73h-8.9v8.9h8.9V73z
		 M54.7,73h-8.9v8.9h8.9V73z M66.1,73h-8.9v8.9h8.9V73z M77.6,73h-8.9v8.9h8.9V73z M31.8,73h-8.9v8.9h8.9C31.8,81.9,31.8,73,31.8,73
		z M43.2,61.8h-8.9v8.9h8.9V61.8z M54.7,61.8h-8.9v8.9h8.9V61.8z M66.1,61.8h-8.9v8.9h8.9V61.8z M66.1,50.6h-8.9v8.9h8.9V50.6z"/>
	<g>
		<path class="st1" d="M306.8,101.8c0,2.3-1.8,4.1-4.2,4.1c-2.4,0-4.2-1.8-4.2-4.1s1.9-4.1,4.2-4.1C305,97.7,306.8,99.5,306.8,101.8
			z M299.5,101.8c0,1.8,1.3,3.3,3.2,3.3c1.8,0,3.1-1.4,3.1-3.2s-1.3-3.3-3.1-3.3C300.8,98.5,299.5,100,299.5,101.8L299.5,101.8z
			 M302,103.9H301v-4.1c0.4-0.1,0.9-0.1,1.6-0.1c0.8,0,1.1,0.1,1.4,0.3c0.2,0.2,0.4,0.5,0.4,0.9c0,0.4-0.3,0.8-0.8,0.9v0.1
			c0.4,0.1,0.6,0.4,0.7,1c0.1,0.6,0.2,0.9,0.3,1h-1c-0.1-0.1-0.2-0.5-0.3-1c-0.1-0.4-0.3-0.6-0.8-0.6H302L302,103.9L302,103.9z
			 M302,101.6h0.4c0.5,0,0.9-0.2,0.9-0.6c0-0.4-0.3-0.6-0.9-0.6c-0.2,0-0.4,0-0.5,0.1V101.6z"/>
		<path class="st1" d="M146.7,60.5c-0.6-0.6-1.3-0.9-2.1-0.9c-0.8,0-1.6,0.3-2.1,0.9c-0.6,0.6-0.8,1.3-0.8,2.2v14.6
			c-2.9-2.4-6.2-3.6-10-3.6c-4.4,0-8.2,1.6-11.3,4.8c-3.1,3.2-4.7,7-4.7,11.6c0,4.5,1.6,8.4,4.7,11.6c3.1,3.2,6.9,4.8,11.3,4.8
			s8.1-1.6,11.3-4.8c3.1-3.2,4.7-7,4.7-11.6V62.7C147.6,61.8,147.3,61.1,146.7,60.5L146.7,60.5z M140.8,94L140.8,94
			c-0.5,1.3-1.2,2.3-2.1,3.3c-0.9,0.9-2,1.7-3.2,2.2c-1.2,0.5-2.5,0.8-3.9,0.8s-2.7-0.3-3.9-0.8c-1.2-0.5-2.3-1.3-3.2-2.2
			c-0.9-0.9-1.6-2-2.1-3.3c-0.5-1.2-0.8-2.6-0.8-4s0.3-2.7,0.8-4c0.5-1.2,1.2-2.3,2.1-3.3c0.9-0.9,2-1.7,3.2-2.2
			c1.2-0.5,2.5-0.8,3.9-0.8c1.4,0,2.7,0.3,3.9,0.8c1.2,0.5,2.3,1.3,3.2,2.2c0.9,0.9,1.6,2,2.1,3.3c0.5,1.2,0.8,2.6,0.8,4
			S141.4,92.8,140.8,94z"/>
		<path class="st1" d="M278.8,83.8c-0.8-1.9-2-3.7-3.5-5.3l0,0c-3.2-3.2-6.9-4.8-11.3-4.8c-4.4,0-8.2,1.6-11.3,4.8
			c-3.1,3.2-4.7,7-4.7,11.6c0,4.5,1.6,8.4,4.7,11.6c3.1,3.2,6.9,4.8,11.3,4.8c4,0,7.5-1.3,10.4-4c0.6-0.6,0.9-1.3,0.9-2.2
			s-0.3-1.6-0.8-2.2c-0.6-0.6-1.3-0.9-2.1-0.9c-0.7,0-1.4,0.3-2,0.8c-0.9,0.8-1.9,1.4-2.9,1.8c-1.1,0.4-2.2,0.6-3.5,0.6
			c-1.1,0-2.2-0.2-3.2-0.5c-1-0.4-2-0.8-2.8-1.5c-0.9-0.6-1.6-1.4-2.2-2.3c-0.6-0.9-1.1-1.9-1.4-2.9H277c0.8,0,1.5-0.3,2.1-0.9
			c0.6-0.6,0.9-1.3,0.9-2.2C279.9,87.8,279.6,85.7,278.8,83.8L278.8,83.8z M254.3,87c0.3-1.1,0.8-2,1.4-2.9c0.6-0.9,1.4-1.6,2.2-2.3
			c0.9-0.6,1.8-1.1,2.8-1.5c1-0.4,2.1-0.5,3.2-0.5s2.1,0.2,3.2,0.5c1,0.4,2,0.8,2.8,1.5c0.9,0.6,1.6,1.4,2.2,2.3
			c0.6,0.9,1.1,1.9,1.4,2.9H254.3L254.3,87z"/>
		<path class="st1" d="M306.6,75.7c-0.5-0.5-1.2-0.9-2-1.2c-0.8-0.3-1.7-0.5-2.7-0.6c-1-0.1-1.9-0.2-2.7-0.2c-1.9,0-3.7,0.3-5.4,0.9
			c-1.7,0.6-3.2,1.5-4.7,2.7v-0.6c0-0.8-0.3-1.6-0.9-2.1c-0.6-0.6-1.3-0.9-2.1-0.9s-1.5,0.3-2.1,0.9c-0.6,0.6-0.9,1.3-0.9,2.1v26.6
			c0,0.8,0.3,1.6,0.9,2.1c0.6,0.6,1.3,0.9,2.1,0.9s1.5-0.3,2.1-0.9c0.6-0.6,0.9-1.3,0.9-2.1V90c0-1.4,0.3-2.8,0.8-4
			c0.5-1.2,1.2-2.3,2.1-3.3c0.9-0.9,2-1.7,3.2-2.2c1.2-0.5,2.5-0.8,3.9-0.8c1.4,0,2.7,0.2,3.9,0.7c0.5,0.2,0.9,0.3,1.3,0.3
			c0.4,0,0.8-0.1,1.2-0.2c0.4-0.2,0.7-0.4,0.9-0.7c0.3-0.3,0.5-0.6,0.6-1c0.2-0.4,0.2-0.8,0.2-1.2C307.3,76.9,307.1,76.3,306.6,75.7
			L306.6,75.7L306.6,75.7z"/>
		<path class="st1" d="M181.8,83.8c-0.8-1.9-1.9-3.7-3.5-5.3c-3.2-3.2-6.9-4.8-11.3-4.8s-8.2,1.6-11.3,4.8c-3.1,3.2-4.7,7-4.7,11.6
			c0,4.5,1.6,8.4,4.7,11.6c3.1,3.2,6.9,4.8,11.3,4.8s8.1-1.6,11.3-4.8c3.1-3.2,4.7-7,4.7-11.6C182.9,87.8,182.5,85.7,181.8,83.8
			L181.8,83.8z M176.2,94L176.2,94c-0.5,1.3-1.2,2.3-2.1,3.3c-0.9,0.9-2,1.7-3.2,2.2c-1.2,0.5-2.5,0.8-3.9,0.8
			c-1.4,0-2.7-0.3-3.9-0.8c-1.2-0.5-2.3-1.3-3.2-2.2c-0.9-0.9-1.6-2-2.1-3.3c-0.5-1.2-0.8-2.6-0.8-4s0.3-2.7,0.8-4
			c0.5-1.2,1.2-2.3,2.1-3.3c0.9-0.9,2-1.7,3.2-2.2c1.2-0.5,2.5-0.8,3.9-0.8s2.7,0.3,3.9,0.8c1.2,0.5,2.3,1.3,3.2,2.2
			c0.9,0.9,1.6,2,2.1,3.3c0.5,1.2,0.8,2.6,0.8,4S176.7,92.8,176.2,94z"/>
		<path class="st1" d="M245.7,76.7c0-0.4-0.1-0.8-0.2-1.2c-0.2-0.4-0.4-0.7-0.6-1c-0.3-0.3-0.6-0.5-0.9-0.7
			c-0.4-0.2-0.8-0.2-1.2-0.2c-0.6,0-1.1,0.2-1.6,0.5L224,85.5V62.7c0-0.9-0.3-1.6-0.9-2.2c-0.6-0.6-1.3-0.9-2.1-0.9
			s-1.5,0.3-2.1,0.9c-0.6,0.6-0.9,1.3-0.9,2.2v40.6c0,0.8,0.3,1.6,0.9,2.2c0.6,0.6,1.3,0.9,2.1,0.9c0.8,0,1.5-0.3,2.1-0.9
			c0.6-0.6,0.9-1.3,0.9-2.2V92.8l3.5-2.3l13.2,15.1c0.5,0.5,1.2,0.8,2,0.8c0.4,0,0.8-0.1,1.2-0.2c0.4-0.2,0.7-0.4,0.9-0.7
			c0.3-0.3,0.5-0.6,0.6-1c0.2-0.4,0.2-0.8,0.2-1.2c0-0.8-0.3-1.5-0.8-2.1l-12.3-14.1l12-7.9C245.3,78.6,245.7,77.8,245.7,76.7
			L245.7,76.7L245.7,76.7z"/>
		<path class="st1" d="M195.2,82.8c0.9-0.9,2-1.7,3.2-2.2c1.2-0.5,2.5-0.8,3.9-0.8c1.3,0,2.4,0.2,3.5,0.6c1.1,0.4,2.1,1.1,3,1.9
			c0.6,0.5,1.2,0.7,1.9,0.7c0.9,0,1.6-0.3,2.1-0.9c0.6-0.6,0.8-1.3,0.8-2.2c0-0.9-0.3-1.7-1-2.3c-2.9-2.6-6.4-4-10.4-4
			c-4.4,0-8.2,1.6-11.3,4.8c-3.1,3.2-4.7,7-4.7,11.6c0,4.5,1.6,8.4,4.7,11.6c3.1,3.2,6.9,4.8,11.3,4.8c4,0,7.5-1.3,10.4-4
			c0.6-0.6,0.9-1.4,0.9-2.2c0-0.9-0.3-1.6-0.8-2.2c-0.6-0.6-1.3-0.9-2.1-0.9c-0.7,0-1.4,0.2-1.9,0.6c-1,0.8-2,1.5-3,1.9
			c-1.1,0.4-2.2,0.6-3.5,0.6c-1.4,0-2.7-0.3-3.9-0.8c-1.2-0.5-2.3-1.3-3.2-2.2c-0.9-0.9-1.6-2-2.2-3.3c-0.5-1.2-0.8-2.6-0.8-4
			s0.3-2.8,0.8-4C193.5,84.8,194.3,83.7,195.2,82.8L195.2,82.8L195.2,82.8z"/>
	</g>
</g>
</svg>
