<?xml version="1.0" encoding="utf-8"?>
<!-- Generator: Adobe Illustrator 25.4.1, SVG Export Plug-In . SVG Version: 6.00 Build 0)  -->
<svg version="1.1" id="Layer_1" xmlns="http://www.w3.org/2000/svg" xmlns:xlink="http://www.w3.org/1999/xlink" x="0px" y="0px"
	 viewBox="0 0 330 166" style="enable-background:new 0 0 330 166;" xml:space="preserve">
<style type="text/css">
	.st0{fill:#FFFFFF;}
	.st1{fill:#4D4D4D;}
</style>
<path class="st0" d="M51.9,52.3L28.2,105l8.9-0.2l4.8-11.9H63l5.2,12.1l8.4,0.2L51.9,52.3L51.9,52.3z M52,69.2L60,86H44.9L52,69.2
	L52,69.2z"/>
<g transform="matrix(.217946 0 0 .217946 4.120542 14.085548)">
	<path class="st1" d="M1315.9,213.9c-3.4,0-6.6,0.7-9.5,2.3l-91.2,52.7c-5.9,3.4-9.5,9.8-9.5,16.7v105.2c0,6.8,3.6,13.2,9.5,16.7
		l23.8,13.7c11.6,5.7,15.8,5.6,21.1,5.6c17.1,0,26.9-10.4,26.9-28.5V294.5c0-1.5-1.3-2.5-2.7-2.5h-11.4c-1.5,0-2.7,1.1-2.7,2.5
		v103.8c0,8-8.3,16.1-21.9,9.3l-24.8-14.5c-0.9-0.5-1.6-1.3-1.6-2.3V285.6c0-1,0.7-2,1.6-2.5l91-52.5c0.9-0.5,1.9-0.5,2.7,0l91,52.5
		c0.9,0.5,1.6,1.5,1.6,2.5v105.2c0,1-0.5,2-1.4,2.5l-91.2,52.5c-0.8,0.5-1.9,0.5-2.7,0l-23.4-13.9c-0.7-0.4-1.7-0.4-2.3,0
		c-6.5,3.7-7.7,4.1-13.8,6.2c-1.5,0.5-3.8,1.3,0.8,3.9l30.6,18c2.9,1.7,6.2,2.5,9.5,2.5c3.4,0,6.6-0.8,9.5-2.5l91.2-52.5
		c5.9-3.4,9.5-9.8,9.5-16.7V285.6c0-6.8-3.6-13.2-9.5-16.7l-91.2-52.7C1322.6,214.7,1319.3,214,1315.9,213.9L1315.9,213.9z
		 M1340.3,289.1c-26,0-41.4,11.1-41.4,29.4c0,19.9,15.4,25.4,40.3,27.9c29.8,2.9,32.2,7.3,32.2,13.2c0,10.2-8.1,14.5-27.3,14.5
		c-24.1,0-29.4-6-31.2-18c-0.2-1.3-1.2-2.3-2.5-2.3h-11.8c-1.5,0-2.7,1.2-2.7,2.7c0,15.4,8.4,33.5,48.2,33.5
		c28.9,0,45.5-11.3,45.5-31.2c0-19.7-13.4-25-41.4-28.7c-28.3-3.8-31-5.6-31-12.2c0-5.5,2.3-12.8,23.2-12.8c18.7,0,25.6,4,28.5,16.7
		c0.2,1.2,1.3,2.2,2.5,2.2h11.8c0.7,0,1.4-0.4,1.9-1c0.5-0.6,0.8-1.2,0.8-1.9C1384,299.3,1369.5,289.1,1340.3,289.1L1340.3,289.1z"
		/>
	<path class="st1" d="M779.6,76.1c-1,0-2,0.3-2.9,0.8c-1.8,1-2.9,3-2.9,5V230c0,1.5-0.7,2.8-1.9,3.5c-1.3,0.7-2.8,0.7-4.1,0
		l-24.2-13.9c-3.6-2.1-8-2.1-11.6,0l-96.6,55.8c-3.6,2.1-5.8,6.1-5.8,10.3v111.6c0,4.2,2.2,8,5.8,10.1l96.6,55.8
		c3.6,2.1,8,2.1,11.6,0l96.6-55.8c3.6-2.1,5.8-5.9,5.8-10.1V119c0-4.2-2.3-8.2-6-10.3l-57.5-32.2C781.6,76.1,780.6,76,779.6,76.1
		L779.6,76.1z M157.9,215.3c-1.8,0.1-3.6,0.4-5.2,1.4L56,272.4c-3.6,2.1-5.8,5.9-5.8,10.1l0.2,149.7c0,2.1,1.1,4,2.9,5
		c1.8,1.1,4,1.1,5.8,0l57.3-32.9c3.6-2.2,6-5.9,6-10.1v-69.9c0-4.2,2.2-8,5.8-10.1l24.4-14.1c1.8-1,3.8-1.6,5.8-1.6
		c2,0,4,0.5,5.8,1.6l24.4,14.1c3.6,2.1,5.8,5.9,5.8,10.1v69.9c0,4.2,2.4,7.9,6,10.1l57.3,32.9c1.8,1.1,4,1.1,5.8,0
		c1.8-1,2.9-3,2.9-5l0.2-149.7c0-4.2-2.2-8-5.8-10.1l-96.6-55.8c-1.6-1-3.4-1.3-5.2-1.4L157.9,215.3L157.9,215.3z M1026.3,216.7
		c-2,0-4,0.5-5.8,1.6L923.9,274c-3.6,2.1-5.8,5.9-5.8,10.1v111.6c0,4.2,2.4,8,6,10.1l95.9,54.6c3.5,2,7.9,2.2,11.4,0.2l58.1-32.3
		c1.8-1,3.1-2.9,3.1-5c0-2.1-1.1-4-2.9-5l-97.2-55.8c-1.8-1-3.1-3.1-3.1-5.2v-34.9c0-2.1,1.3-4,3.1-5l30.2-17.4c1.8-1,4-1,5.8,0
		l30.2,17.4c1.8,1,2.9,3,2.9,5v27.5c0,2.1,1.1,4,2.9,5c1.8,1,4,1,5.8,0l57.9-33.7c3.6-2.1,5.8-5.9,5.8-10.1v-26.9
		c0-4.2-2.2-8-5.8-10.1l-96.1-55.8C1030.4,217.2,1028.4,216.7,1026.3,216.7L1026.3,216.7z M737.4,299.9c0.5,0,1.1,0.1,1.6,0.4
		l33.1,19.2c0.9,0.5,1.6,1.5,1.6,2.5v38.3c0,1-0.6,2-1.6,2.5l-33.1,19.2c-0.9,0.5-2,0.5-2.9,0l-33.1-19.2c-0.9-0.5-1.6-1.5-1.6-2.5
		V322c0-1,0.7-2,1.6-2.5l33.1-19.2C736.5,300.1,736.9,299.9,737.4,299.9L737.4,299.9L737.4,299.9z"/>
	<path class="st1" d="M448.2,216.1c-2,0-4,0.5-5.8,1.6l-96.6,55.6c-3.6,2.1-5.8,6.1-5.8,10.3V395c0,4.2,2.2,8,5.8,10.1l96.6,55.8
		c3.6,2.1,8,2.1,11.6,0l96.6-55.8c3.6-2.1,5.8-5.9,5.8-10.1V283.5c0-4.2-2.2-8.2-5.8-10.3L454,217.6
		C452.2,216.6,450.2,216.1,448.2,216.1L448.2,216.1z M1026.1,315.6c-0.4,0-0.8,0-1.2,0.2l-18.6,10.8c-0.7,0.4-1.1,1.1-1.2,1.9v21.3
		c0,0.8,0.5,1.5,1.2,1.9l18.6,10.7c0.7,0.4,1.5,0.4,2.1,0l18.6-10.7c0.7-0.4,1.2-1.1,1.2-1.9v-21.3c0-0.8-0.5-1.5-1.2-1.9
		l-18.6-10.8C1026.8,315.6,1026.5,315.6,1026.1,315.6L1026.1,315.6z"/>
</g>
</svg>
